<mxfile host="Electron" modified="2023-09-12T08:07:22.565Z" agent="Mozilla/5.0 (Windows NT 10.0; Win64; x64) AppleWebKit/537.36 (KHTML, like Gecko) draw.io/21.6.8 Chrome/114.0.5735.289 Electron/25.5.0 Safari/537.36" etag="qraRICl4sk1_OXCGaXi8" version="21.6.8" type="device">
  <diagram name="第 1 页" id="hk__FCE4-FFWlfJMG6TE">
    <mxGraphModel dx="2261" dy="884" grid="1" gridSize="10" guides="1" tooltips="1" connect="1" arrows="1" fold="1" page="1" pageScale="1" pageWidth="827" pageHeight="1169" math="0" shadow="0">
      <root>
        <mxCell id="0" />
        <mxCell id="1" parent="0" />
        <mxCell id="Upq6xmgnHAcSHIq_n58L-30" value="&lt;font style=&quot;font-size: 22px;&quot;&gt;Old&lt;/font&gt;" style="rounded=0;whiteSpace=wrap;html=1;verticalAlign=bottom;fillColor=#ffcd28;gradientColor=none;strokeColor=#d79b00;" vertex="1" parent="1">
          <mxGeometry x="80" y="250" width="780" height="310" as="geometry" />
        </mxCell>
        <mxCell id="Upq6xmgnHAcSHIq_n58L-1" value="&lt;font style=&quot;font-size: 22px;&quot;&gt;Eden&lt;/font&gt;" style="rounded=0;whiteSpace=wrap;html=1;verticalAlign=top;fillColor=#d5e8d4;gradientColor=none;strokeColor=#82b366;" vertex="1" parent="1">
          <mxGeometry x="80" y="30" width="780" height="220" as="geometry" />
        </mxCell>
        <mxCell id="Upq6xmgnHAcSHIq_n58L-8" value="" style="group" vertex="1" connectable="0" parent="1">
          <mxGeometry x="100" y="80" width="140" height="90" as="geometry" />
        </mxCell>
        <mxCell id="Upq6xmgnHAcSHIq_n58L-2" value="Serial" style="rounded=1;whiteSpace=wrap;html=1;verticalAlign=top;fontSize=16;fillColor=#d5e8d4;strokeColor=#82b366;gradientColor=#97d077;" vertex="1" parent="Upq6xmgnHAcSHIq_n58L-8">
          <mxGeometry width="140" height="90" as="geometry" />
        </mxCell>
        <mxCell id="Upq6xmgnHAcSHIq_n58L-5" value="串行&lt;br&gt;客户端模式默认" style="rounded=0;whiteSpace=wrap;html=1;glass=1;fillColor=#d5e8d4;strokeColor=#82b366;gradientColor=#97d077;" vertex="1" parent="Upq6xmgnHAcSHIq_n58L-8">
          <mxGeometry x="15" y="40" width="110" height="40" as="geometry" />
        </mxCell>
        <mxCell id="Upq6xmgnHAcSHIq_n58L-9" value="" style="group" vertex="1" connectable="0" parent="1">
          <mxGeometry x="290" y="80" width="140" height="90" as="geometry" />
        </mxCell>
        <mxCell id="Upq6xmgnHAcSHIq_n58L-10" value="ParNew" style="rounded=1;whiteSpace=wrap;html=1;verticalAlign=top;fontSize=16;fillColor=#d5e8d4;strokeColor=#82b366;gradientColor=#97d077;" vertex="1" parent="Upq6xmgnHAcSHIq_n58L-9">
          <mxGeometry width="140" height="90" as="geometry" />
        </mxCell>
        <mxCell id="Upq6xmgnHAcSHIq_n58L-11" value="并行&lt;br&gt;服务器端默认" style="rounded=0;whiteSpace=wrap;html=1;glass=1;fillColor=#d5e8d4;strokeColor=#82b366;gradientColor=#97d077;" vertex="1" parent="Upq6xmgnHAcSHIq_n58L-9">
          <mxGeometry x="15" y="40" width="110" height="40" as="geometry" />
        </mxCell>
        <mxCell id="Upq6xmgnHAcSHIq_n58L-13" value="" style="group" vertex="1" connectable="0" parent="1">
          <mxGeometry x="470" y="80" width="140" height="90" as="geometry" />
        </mxCell>
        <mxCell id="Upq6xmgnHAcSHIq_n58L-14" value="Parallel Scavenge" style="rounded=1;whiteSpace=wrap;html=1;verticalAlign=top;fontSize=16;fillColor=#d5e8d4;strokeColor=#82b366;gradientColor=#97d077;" vertex="1" parent="Upq6xmgnHAcSHIq_n58L-13">
          <mxGeometry width="140" height="90" as="geometry" />
        </mxCell>
        <mxCell id="Upq6xmgnHAcSHIq_n58L-15" value="并行&lt;br&gt;吞吐量优先" style="rounded=0;whiteSpace=wrap;html=1;glass=1;fillColor=#d5e8d4;strokeColor=#82b366;gradientColor=#97d077;" vertex="1" parent="Upq6xmgnHAcSHIq_n58L-13">
          <mxGeometry x="15" y="40" width="110" height="40" as="geometry" />
        </mxCell>
        <mxCell id="Upq6xmgnHAcSHIq_n58L-22" value="" style="group" vertex="1" connectable="0" parent="1">
          <mxGeometry x="240" y="430" width="230" height="90" as="geometry" />
        </mxCell>
        <mxCell id="Upq6xmgnHAcSHIq_n58L-23" value="CMS(Concurrent Mark Sweep)&lt;br&gt;&lt;br&gt;&lt;div style=&quot;border-color: var(--border-color); position: relative; margin: 0.5em 0px; padding-left: 1.5em;&quot; class=&quot;MachineTrans-Lines&quot;&gt;&lt;/div&gt;" style="rounded=1;whiteSpace=wrap;html=1;verticalAlign=top;fontSize=16;fillColor=#ffcd28;strokeColor=#d79b00;gradientColor=#ffa500;" vertex="1" parent="Upq6xmgnHAcSHIq_n58L-22">
          <mxGeometry width="230" height="90" as="geometry" />
        </mxCell>
        <mxCell id="Upq6xmgnHAcSHIq_n58L-24" value="并行，低停顿&lt;br&gt;低吞吐，无法处理浮动垃圾" style="rounded=0;whiteSpace=wrap;html=1;glass=1;fillColor=#ffcd28;strokeColor=#d79b00;gradientColor=#ffa500;" vertex="1" parent="Upq6xmgnHAcSHIq_n58L-22">
          <mxGeometry x="15" y="40" width="195" height="40" as="geometry" />
        </mxCell>
        <mxCell id="Upq6xmgnHAcSHIq_n58L-25" value="" style="shape=image;verticalLabelPosition=bottom;labelBackgroundColor=default;verticalAlign=top;aspect=fixed;imageAspect=0;image=data:image/png,iVBORw0KGgoAAAANSUhEUgAABF0AAADuCAYAAADr9niaAAAAAXNSR0IArs4c6QAAAARnQU1BAACxjwv8YQUAAAAJcEhZcwAADsMAAA7DAcdvqGQAAFSYSURBVHhe7b1/rCZVuedbfZXb0DS7jwINR0HpRtgOYGs8aDq0QRyjiZPQJB4OhExMHNAYJ8N/tM4kjoKSm6uQzB9Ocq45ejQ5N+GAykk3JBiZeJAIh4jHHNBubUZbggxjd7s1bLCZHi5w97fW++x3vWuven//qLXW55OsVNWqqlW1s7/1vE99a9WqTa+tUQEAAAAAAAAAwFT5PzpTAAAAAAAAAACYIpguAAAAAAAAAAAzANMFAAAAAAAAAGAGYLoAAAAAAAAAAMwATBcAAAAAAAAAgBnA14ugaO56eDz533Dlps4cwPxBtzAM+49+u56+feul1fLpl9TzKYC+YRhWVlaq51dfqLZs2VKde872Tm37Qd8wDKnGb4BpkKP+MV2gaK65/dXO3Gjs/xydxGBxoFsYxOE/Haq+cuS2zlJVJy3XnPNXSSQv6BsGceLEiep7D/6gWn3hxXpZpsuVe3bXBkzbQd8wiJTjN8Ck5Kp/TBcoGkt+PvIXwz1BeuCf3eVC8gOLBN3CIPSU6MCx73SWuqSQvKBvGIR6udz3wIOdpS4Xv21n9a5dl7XafEHfMIiU4zfApOSqf0wXKBpLfr76qeGSmZu/5rYn+YFFgm5hEH7S8pbTLqieeenpet5oc/KCvmEQvumyefPm6uTJk/W88Z53v7PaccFbW2m+oG8YRMrxG2BSctU/ERwAACBj9rzhquqzF95aTw3rvquieYBUWVraVp133vlr06VOTVU9/tMn6tePDh76Rf0qEkCqEL+hZHLSP6YLAABAAbzvjVdVN7zp4/WTI8OSFz1ZAkgZmS9nn7297vkiNN6LmS9HftP7pBQgNYjfUDI56B/TBQAAoBCUsChxCZMXdeW96WfXk7xD0shwkfESmi8PP/JYde/++zFfIGmI31Ayqesf0wUAAKAw+iUvqXXZBQjpZ76o5wuvHEHKEL+hZFLVP6YL1MgdVCFQAwCUQyx5sS67JO+QOjHz5XdHj1X33HugevSxH2O+QNK0MX7f9fBrYxWAUUktf8F0gVqUcgfNIWyjUAEAYHZY8sJgjZAjZr74g+0+9asjtfnCYLuQOm2K33//8GtjFYBxSSV/wXSB6pcvHuzMOdooVAAAmD0arI4vZUCu8KUjyJk2xe+P/MWmoQrAtGh7/rLptTU681Aoeq1IvVyE3MJcvoc+DNfc/mo9/eqnhvMfb/6a237/5/ArYXGMq9sbP/nd9WsdysHvejsK+i145I8PbfhN2Lv92vo3YVaMq+/b9h6qVlZWqudXX6iXIW80RovwXx0ahZMnT1arq8/XU2PpjK3Vu3ZdVu3cMfr1MizEbxiFUuL3oLzav1eBckhN//3AdIGeQGbi/tEfHqrF6pOj+YLpAikyjm5POetQtW3Plzo1UBLjJi3GvJOXcfT9yssnqhvf/dD6jTiUw7imizFv84X4DaNQQvwW/fJq660A5ZGa/vuB6QJR00W0SaizAtMFUmTSpN3vegn5o5g+SdJixH4TZmHGj2u6XHvR/fWy/+oI5M/mzadOZLoYMfPl3HO2V1fu2V1t2bKlUzM5xG8YhRLitxjWdEH/ZZGa/vuB6QKNposRE6rIwXzBdIEUmTRpn/TJAZSNfgvueu5bnSXHNJOXSU2XSXs+QNnIdDl+/FhnyXHx23bWPV+mYb4Qv2GRtDF+i2FNF/QPkzBr/fdjuCsCikbBTUEuDHQyatowMBEAAMwP/Q4w2C7kigy7cLBdvnQEuUD8hpJZpP4xXWBoYuYLgRoAoEzsSwH2eyD4TYBcsC8d+b2m+NIR5ALxG0pmEfrHdIGRMfMFlxwAAGI9Ie03Qa+vAqSMXlfzX1nTYM1mvhz5Te9r1wCpQfyGkpmn/jFdYGza/j10AACYD2bGh8mLXkO96WfXk7xD0shwiZkvDz/yWHXv/vsxXyBpiN9QMvPSf+NAujqADa4K5RAKblhSHWyXgXQhRRiIEdpO7Ddh2MHqGEgX2k7sS0fDDrZL/Ia2M+/4LRhIF9rCJPrvR1ThEjeGC4yCAqACYRgMcckBoG088fjBztzoaN9J9i8F/zfBoCfk9Dl8+HBnbnrMos3c8Hu+GDbY7qOP/ZjxXmYI8Xv2EL/bC/qfPbPSf7SnizUs/FdHIH8kNN80GZdZuYTThp4ukCIlPikdJVF453su7cxt5O/++u61ck/1/Se/26lp5pYbP19P7/zbL9ZTobonf3Kw+tinr6vP6WOfvr7neGrfTe+pt9l1+WXrdSHhvjnzoz88VP8m+DT9JtDTxSHzw5WnOjVxQ2Tv3qvXyt7OUpdPfOKT0XUHDhzoTO/bsF7rVP/1r/9NpyZ+TLG8vFxPtd7a8uuasG1yQr1eVldXO0tVtXTG1mr5ogurHRe8dUPPF+J3f4jf7WPW8Vvk3NMF/afNKPrvx0DTJUVxQ3uQ6bKo76EPA6YLpEiJSbslC4PYdfmlPUlGmOwogbCkQwmFj59AaL99N32+3k7JhWHnoaRH89rH1n9411/WU6Hz0DodQ+1o2Udt3PGNLzYmLTpPO3f/70kd/R74ZrwIfxMwXbrcccednTmHzAyZFsvLF6+bF76JYQaIzQtbL1PE2rM2RD/TxZZDtP++fbfU8zqOtWt14Xkb/n45cvz4sZ5XjmLmC/G7GeJ3u5lV/BY5my7oPw+G0X8/MF1gLkzLJZw2mC6QIiUn7fqhF0/+5OdrP+zdpzFCP/TC/5EfNtmJJSciTID8pEfLlsDYeiUhSl6sPUt+/ARFbejcm5IWP/kRwzzVSgklLWFPSGFjgGG69JonPqGR4mM9Tcwo0bKwnjJmusj0CPdXu648VU/9XitN+Ou1j9rWfjJx7Dx9tF775Gy6iNh4LzJfNN7Lzh0XEL/XIH6nyyzityjBdEH/6TNI//0Y7ooAmJBFfA8dAPJDP/L+D70SlrAuhksiNpbwCY7oJibX18mLkgjVKfmwBEhJh1AbSkyMpnmXqLji18doOq9c0O+AEucwedYYYJZYl47MCdebpbcMWufjtlteN1H6oW1k1JhZonkVayNWfLQsM8V6zYTbqpSCP96LmX/2pSON91IyxO/0IX6PD/pPn0n0T08XmDuTuITThp4ukCIlPykdhH7sY0+Kmp62KIFQMuKSmI3dbIVLIi5ba+fn9bISFv/pkFDSFO4n9DRI7cdoelIk7LxEbk+KQsIuu7/ff1c9Lbmni6HeIbFeIyH2OpBvnsjosH2d8XHxupHio3ozSzQOjLDeMLYcw4wctWnEetEYakvrcu/pEhK+cvQPT19XT4nfGyF+p8c04rfg9SL0nyKh/j+z8wuNb3AMd0UATBEFSwXNMHDypSMAGIRLLrpPUmxZpR/+kxq/WCLi47en4yiZUXKhxMWSFCVDSlKUWFgbSkLsvDTVstA0VkpHr52q+AnLIl83bSsyKtxrO87k8JdjBoczUa5eN17cdt2eMKr3i2ED7AobkyU8ji37dZqG56H9w1IabnDdjZ+VLhmLrcTv9CF+j45pE/2nT5P++10DmC6wMPqZL3K0eeUIAEKUQFgSIZRIWJ0lDDH0dKephKgtw+a7CUr3aZUSG0tqhM7J1muqZEaJkfaLlVjCVApKVtTjUcVQb0c9JYJenDmisVbc2Cz+sm+aCDNAfCMkXHavATkDx38lyNoXWi+jROtc8Q0fV2fzrndL7+tNoaFTGvY1I/ui0flv/vN6TJcrdr+3Xi4Vi9XE77Qhfo+HaR39p824+sd0GYC5guOgfSfZvxR888VgvBcAiKEnNCqWbCgpsDo/oQiJPalRsSdCPmrT2ldyobZte+sqa0mTjmlxXvv5qA1tZ/sKJTm27CdHpaBk5cu/vnVDsvKNd9w999dLU0Kmhm9s2LIZKYaMDutZYsaHvyzCfYRta+ucoeKMFxUfvSbk94ppQm3IkLHiesdsHHsmJ2S2PPvsb9fNFiGz5YMfeH89LR3id9oQvycD/afNpPrP0nQxs2OY0g8JUIIdBrtofGx/u6jC47kL4+7agdRU662dsAw61xyQ+aLBdve84apODeYLADjChKTfUyEf7adtlTzEihIHJSJ+AmHxVvspqdE6295QQqKi9arXPrYs3H56kuTepbanQjoff7kUmpIVPRkiWW9GRoX1MjF800Qmhr/eNzo0b+aJxnzxe7KEmOFipogdQ/Wx4/drqwnrIZMjTWbLdR/di9myBvE7bYjfk4H+02Za+s/SdDGzY1DRdj4SXViEGSJhvaFlCdEXtI9dDL5IndHiRO9ffOGFKWJ1Pjo/M2dygC8dAYCPxVzFSg0yp2LxVvHV6sJEJozVw2KJjD+gnY8dxyU1Lr7752NoXnE//N2w5XHPLyViyYreeVbComSFMQCakeHhBsW1V4lirxe5Eo7Hom18humZEporNkCuGTCGjJmwfUP79DvWsL1kUiFmtmjclqs/8qHabNmyZUuntlwszhG/04P4PTmmE/SfHtPWf9avF3W7QHWdO6sLxS1Cs8bMDhkjvfW9Dp/288UrfDGauaN2DJ2DLgohsYdCDy/MJsy8ce5jXhdAbLwXM18YbBegHCyG+nFyGMbdTzFeJnY3vrqYr/ZUZ7FW8Vnb2XEU10P8eC70W9Evvtsx9FtjaDk1Uz2WrAiejg6P9TzxS1O93zNFNPUoCQ0Uw8Zo8VFbse2tzjdPfEPIaDJ+ms4hJWJmi8ZtkdmicVvOPPPMTi0Qv4nfJYP+0b+RtekiQfiiUDepsC6GdasKS5NRIwFLmF2RO/PGhG1mi9oI3UIjNGmsDHISm84rF/zxXnzzZZjvoQNA+igGKpYqzjXFbsVeFYu5Ypj9mrC4q/gqc1y/HZbA2O+Biktouk98wuOoXvtZEdrelpsSEZ1zWEb9GxaFkhWVWLLCe//DI8PC9Vjp7dFi68J61yPGmSR6lcjv7WKGipbD3iz9sHFYwnFd1JbqfWOneyxXb8dRzxYrTT1nUsINkOsGyTXMbNG4LZgtvRC/id8lg/7Rv8+m19bozK9jvQlEeLObAqF4m5AQzL0Ttp/1QAmRAGWmOME659GEaGidvQMnJGprzxd2uJ+Qy+i7gz5a1yRaOy/RdO65MMr30Ifhmttfradf/dRw/uPNX3Pb7/9c1n4ltJxxdHvKWYeqbXu+VC+nFtdlQJtpbpgprVhs8Vb428X2GxcdK2xHvxmqC4+hep2X6nQO/bDfkhxoSlZGTVTG0fcrL5+orr3o/nr57LO3V5s3b67nU2bU13BkZpih4YwZmSy9xoitV9sya2SO+CaI1ctwMfzz8NvzMdPFP74/NZr2T4GY2SKTZdQxW4jfxO82ssj4Lfrl1Snfl6L/NJiW/vuRtekiA0RIbP6ykBnSZLr424V0nUInNBNk2J6OqXVqT/WaCts3XD+McJsuPLWVu+mii0H4F4TMFpkuk4DpAilSWtIO7WbayQqmC7SJ0GwRMlrGHSCX+A1tog3xW+RqukC7mYfZYgx3RSSKjAwVMyvk5lmdjI4mZKA0lRDfLLF59WLxXy8SMlt8c0XnZOs1ldMpE0b7xYrvhJaGXRD+RaELYlLDBQAAxkexOXzv2WLzLBIWgHkSG7dFRgtfJIIcIH5DySxC/1mbLuq5omJmiUwNq/MNkRC9yhMrsR4watPalzmitm1763Vipo+OqV4pQvv5qA1tZ/sKmTS27Js7pdB0QfBeKQDA4ojFZqH4rNjMFy0gZWJmi43bIrOFLxJByhC/oWQWqf8sXy+y8VL83iwyPGLL/utF2i+sG4QZONpPpkn4bpw/dov/apEMGi3LbDEzR/tajxYzcmxdP9Mlt9eLdEHELoa3b7106hcDrxdBikzaPV0x/fxT6Z5bCvoM/zSIxWZhycq0mPT1Ir1axOtF5bC0tK0zNxmx14hktshomeYAucRvGIUS4rcY9vUi9F8Wqem/H9mZLmZA+OaJ9UZRjxEzRGSWCH8MlnC/YdB+1qaOExuQqMngkUGiqZkx2l/tCe0jtJ/Qer9dn1xMl9gFIZNFZVYXBKYLpMikSTuUxaS/44rNImaGzyI2T2q6QFlMOoaPzBY37e3ZMm2zxSB+wyiUEL/FsKYLlEVq+u/HcFdEQthrO6O+jjPufuqZImNF5omMnW5PFb6HPiy6IJq6evFuKcB0ePn3l9TXFMAomBnux2fpqG2veb7ulC3VlXt2V0tnbKUUUqaB9W4xw8XMlrZ9/pn4DeOQSvwehB6+on8YlbbpP6ueLk29VWROWE8XMz383ifj9nIRZnDIFJFp4vc6sVeDhL0uFB7Derqoh4xvnoTEzk1/i/WM8bFzaTttcB/p6QIpgm5hEPuPfrs6cOw79fw4v+OWrPjMKzajbxjEyspKdd8DD9bz4/R0ib1KJLNFZdagbxgE8RtKJmX99yO714tkRISv+Jg5ISPC/wqQv11sv3HRscJ2ZM6oLvb6kc5LdWYINZGCkTIsbbkg+HGAFEG3MIhxk5am2Cwww6EtjGu6NJkt6uEyr54t6BsGQfyGkklZ//3IciBdaC9tcx/5cYAUQbcwiFGTllhsFpjh0EZGNV3mNUjuMKBvGATxG0omZf33A4XDXNAFEfv8M2O2AAAsjlhsForPfJ4fUkdmS9Pnn9s2bgvAqBC/oWRS0z+mC8yUfheELoZZfg8dAADiKDarkKxDjrieLb29WzBbIBeI31Ayqep/4OtF6tLD99DLIafvoQ8D3SAhRdAtDKJf99ymZKUtsRl9wyD6vV4UM1tkssxjkNxhQN8wCOI3lEzK+u/HQNMFymKYd+f6oYtBpHJB8OMAKYJuYRCxpCWVZAV9wyBipkts3JZ5fZFoFNA3DIL4DSWTsv77EVU430OHcbALwr8opCO6OgIALA7F5NiYWqklLAAxYuO2yGjRq0RtM1wARoX4DSWTk/6jPV2gLPp14xqGlN1HHHlIEXQLg/Djekjb4zP6hkH4PV18FvVFolFA3zAI4jeUTMr67wcKh7GR2YL7DgDQPt6+9dLOXBfFZnoeQg6cdtpp1dIZWztLDJILeUH8hpLJVf+YLjAyMbNFmNnCDwIAwGLRa8L6JL/iMsk65MaWLVuqK3a/t7pyz27MFsgO4jeUTK76x3SBoelntvCDAADQLpS4KC4TmyFHzj1ne7VzxwWYLZAlxG8omRz1j+kCA5HZ0jRuC2YLAAAAAAAAQBxMF+iLmS3huC2YLQAAAAAAAAD9wXSBKLFXiTBbAAAAAAAAAIYH0wV6kMnCF4kAAAAAAAAAJgfTBXp45qWnO3MOM1swXAAAAAAAAABGA9MFsv0eOgAAAAAAAMAiwXSBbL+HDgAAAAAAALBIMF2gJsfvoQMAAAAAAAAsEkwXAAAAAAAAAIAZgOkCAAAAAAAAADADMF0AAAAAAAAAAGYApgsAAAAAAAAAwAzAdIGa/Ue/XZfDfzrUqQEAgJQhrkPOrKysVEd+83T1u6PHOjUA+UD8hpLJUf+YLlAL+sCx79TlK0duqwtBHgAgXYjrkDMnTpyofvijf6oefuSx6nsP/qAuqgPIAeI3lEyu+sd0geqXLx7szDkkbII8AEC6ENchZ1566aVq9YUXO0tV3dvlnnsPVI8+9mPMF0ge4jeUTK76x3SBHt5y2gWdOYI8AEAOENchZzZv3tyZq6qnfnWkNl8OHvoF5gtkAfEbSiYn/WO6QA973nBV9dkLb62nBkEeACBdiOuQM0tL26rzzjt/bbrUqamqx3/6RP3KEeYLpA7xG0omJ/1jukCU973xquqGN3086jBqYCMAAEgL4jrkjMyXs8/evt7zRa8fmfmiAXcBUob4DSWTg/4xXaARCVsCD0WugY1u+tn1BHkAgMQgrkPOyHCR8RKaLxpw997992O+QNIQv6FkUtc/pgsMpJ/IU+vaBQAAxHXIm37mC186gtQhfkPJpKp/TBcYmpjIrWsXQR4AID2I65AzMfOFLx1BLhC/oWRS0z+mC4yMiZxBvQAA8oC4Djlj5os/2C5fOoJcIH5DyaSif0wXGBsNasSI6pAyKysr9Tv+evIJAMR1yBu+dAQ5Q/yGkmm7/je9tkZnvgcNRqN3o6As/C5ao/DMS09Xj/zxoXrqs3f7tdU15/xVZ6l9XHP7q/X0q58azn+8+Wtu+/2fw69MHSXXSrT1nr9YOmNrdcXu91bnnrO9Xm4z4+r2xk9+l7heIKnF9XH1fdveQ7WR+vzqC/Uy5I3Fbv/VoVE4efJktbr6fD019Dvwrl2XVTt3jH69DAvxG0ahlPg9KK/mvrRMcrovjZou5gpBeYwrbqONIu8Hpku5yHRR1/KQi9+2s066t2zZ0qlpH+Po9pSzDlXb9nypUwMlkVpcH0ffr7x8orrx3Q+t34hDOYxruhjzNl+I3zAKJcRv0S+v5r60XHK6Lx1ouvhddCB/JOxJxG3ERL58+iW1wDVtC5gu5eKbLkrY/YRbtNl8mTRpJ66XRWpxfVzT5dqL7q+X/VdHIH82bz51ItPFiJkv6vl45Z7dU/0dIH7DKJQQv8Wwpgv6L4vU9N+PgabLpA4TlI3Efddz3+osOeYt8n5gupSLb7rYk1Il3Kurq3Wd0NPO5YsurHZc8NZWmS+TJu3EdZiEWcf1SU2XSXs+QNnIdDl+vHecr2ma8MRvWCRtjN9iWNMF/cMkLPK+dLgrAmBMFBgZ1AtSQYMs+jdselXBH2QRAIjrkDeK/+Fgu3zpCHKB+A0ls0j9Y7rAXLARpX13miAPbUQJt4yXmPly7/77668dAQBxHfLGvnTk95riS0eQC8RvKJlF6B/TBeaKugWGXQNN5BqZHKAtNJkvDz/yWJ10k3ADOIjrkDNNJrx+BzDhIXWI31Ay89Q/pgvMHQk7JnJ9Cu6mn11PkIdWETNffnf0WN3V/NHHfoz5ArAGcR1ypp8JTw9ISB3iN5TMvPSP6QILo5/IZ9W1C2BcLOnmPX+AZojrkDP9zBdMeEgd4jeUzKz1j+kygCceP9iZGx3tO8n+peCL3LCuXQR5aBv2nr9vvvCef1oQ12cPcX0+HD58uDM3PWbRZm745othJjzmy2whfs8e4nd7Qf+zZ1b6z/KT0aMI6p3vubQzt5G/++u718o91fef/G6npplbbvx8Pb3zb79YT4XqnvzJwepjn76uPqePffr6nuOpfTe9p95m1+WXrdeFhPvmzI/+8FD9LXWfWX3Oa9xP292291C1srJSPb/6Qr0MaaInlMJ/ajkK+rSoPjOtqaHPTOvTojt3zC5ulvjJUeJ62owS1/lktEPmhytPdWrihsjevVevlb2dpS6f+MQno+sOHHCfyj9w4L4N67VO9V//+t90auLHFMvLy/VU660tv64J2yYn9DuwurraWXK/A8sXXVjtuOCtGz4zTfzuD/G7fcw6foucPxmN/tNmWvelWZouJqpB7Lr80h4xhheFhGbilPB8fKFpv303fb7eTiI07Dx0cWhe+9j6D+/6y3oqdB5ap2OoHS37qI07vvHFqLh1jnbe1nYuF4G+o67vqfuMI/J+jJvc3/juh9Zv2CF9Jr1Jm7f5UmLSTlwvJ65junS54447O3MOmRkyLZaXL143L3wTwwwQmxe2XqaItWdtiH6miy2HaP99+26p53Uca9fqwvM2/P1y5PjxYxt+B0LzhfjdDPG73cwqfoucTRf0X47++5G16SJBiCd/8vM1EXRdOyFRiJgDOIiYiEV4ofgXh5ZN6LZeIpTIrT27SHwhqw2de0zc/vnqgrB5O0YOSNxyF0OR791+bS3ySZk0ufdfMYF02bz51KncpMXMl3PP2V5duWf3hqedk1By0k5cT59BcR3Tpdc88QmNFB/raWJGiZaF9ZQx00WmR7i/2nXlqXrq91ppwl+vfdS29pOJY+fpo/XaJ2fTRQwy4YnfxO+UmUX8FiWYLug/fQbpvx/DXRGJIjH4gpCww7oYTmwbS+j0ia6Ar6/FJrGqTiI1sUmcQm1IwEbTvBO0K359iI6pNiVmXViaF/32SQ0FVgXYMMjaoEaLRjfrGuODknaZ1g2a2tENn3/Tx5eOpgtxPX3aHtfbgMwJ15ultwxa5+O2W143UfqhbWTUmFmieRVrI1Z8tCwzxXrNhNuqlELsd8AfbLdkiN/pQ/weH/SfPpPon9eLPBfQ9mty5CQaidaJ3TmKErOPuwguW2vn5/WyhG3tmeh0cYX7CbmGaj9GzFEMsfMfZttUCbt2fWbnF4bq0tUET1RhloTv+Yv3vPud0ff8R6HkJ6WDIK6nRxjXf7//rnpKXHa9Q2K9RkLsdSDfPJHRYfs64+PidSPFR/VmlmgcGGG9YWw5hhk5atOI9aIx1JbW5d7TJSR85egfnnY3IsTvjRC/02Ma8VvwehH6T5FR7ktfd+sanfl1Vl4+Xj3yxx/W8+84413VtlP+rJ5Phe/v/8fq6HPHa6HZP9lfVpEIznnT9urD13ygXi9sP6H1YTn63LF66trovktn7eli2Xf7zdW5b9Zo9pvW25Oo7/zP/7V68MA/rq07u95XF4Da03rtd8uXbq7b0vnEinDtNqNjCG0/aNvU0CBGEvXPX/iXTs1aoth5j24S/v5h5zn+m8s31dNBPPDPr1WvvfpydcmZrrv26aefXr3+9a+v5wFCrCeUsKT7uf95tPrts/+jevXVV6qta/o55ZRT6vpRGEe3r9tyvDr1LQ/Xy8R14nobaIrrv/3Z++t54nJVPfroo9VZZ51V7dlzRW1Y6PUfTW1ZmtSg7maaaF5onfa1bc8668y6XvtrG79oGxW9lmSvImlfv9dK9zjutSMrqtM6naPm3bHOqs0iteEXrbe/pQTsFSO/h+PFb9tZPXLkTfU88Zv4nTLTjN/ihiubt+e+FP23jXHuS4ezIRPFdXPqjq4sQVmdBNWEXMCmEmLOorB5uYVyBiV4QxeWjmnb2AUhNHXv97nuX7FiDmUT5lbqGPb35oKNGq1i6N05uYkAKSDjJexqbp+ZPvKb3vdCoT8Ww4nraUNcHx71VnFjrThDxF+2niyGb4iohHXCvQbkeqn4rwRZ+0Lr3RgtezvFba82rM7mXe+W3teb3DkO7qGTK9bL0Xo6nv/mP6/HdLli93vr5VKxWE38Thvi93iY1tF/2oyr/6xNF3VrUjFRSjxW5wsvRN2gYkUCDVGb1r5EqLZte+u+ZWLTMU2E2s9HbWg721dIqLbsX0QhalPHFv22Sw2J+su/vnWDqL/xjrsn7uECMG/6ved/7/77MV+GhLieNsT18QjHbbFlM1IMGR0yS+y1pHBZhPsI29bWOUPFGS8qPnpNSL1iBqE2ZMhYcb1kNo49kxMyW5599rfrZouQ2fLBD7y/npYO8TttiN+Tgf7TZlL9Z2m6hMKVSIZB+2lbiSxWJBwJ1heQiVX7SfxaZ9sbEq6K1qte+9iycPt137kz91Dn4y/H6BV2t9tayjSJWg4iQR1Sp5/5wmC7zRDX04a4Ph4yKqyXieGbJjIx/PW+0aF5M0805ovfkyXEDBczRewYqo8dv19bTVgPmRxpMluu++hezJY1iN9pQ/yeDPSfNtPSf3amiy82DUakYv9wCc/qQsHbfqNigvcHPvKx4zjxu4vCPx9D8xKxzsM/F1uOnZ/qfGH77aVITNR6P07Clqg1D9PDnnqOQtM+w7Q1zvFyxjdfjKd+dYQvHUWw+EdcTw/i+vgoZrpBce1VotjrRa74PU/8Xi3GMD1TQnPFBsg1A8aQMdMUz7VPv2MN20smFWJmi8ZtufojH6rNlkkGTM8Fi3PE7/Qgfk+O6QT9p8e09Z+d6WLdo0b9R4+7nwSprlt6X04uoZaF2lOduZsStOtS5o5jXbV8dGy7+ETsAvXxu4Lp2DqelZSIiVqM4yLCcCjx9buMuyQ+Xny0Tyxhbqo3tC7soh47loqh+fDmwd8uLKki8+W8886vlpaWOjXOfNF4LwcP/QLzZQ3iOnG9RKzniV+a6v2eKaKpR0looBg2RouP2optb3V+zPcNISOMy7Z90zmkRMxs0bgtMls0bsuZZ7qBi4H4TfwuG/SP/o2sTBc5bBKTRBETg5DAVEx0Ypj9mjCnT46enEV1xTKhO5fPFSf8rjMYHkf1oTi1vS3rnGPonGMlBSRqlZioeT90ttgTTUuKZW40FcO2DRPmMJEOE+0YZsKExf/0qFBbqtfU5mMl3C9FNNiuzBf/lSMbbLdk84W4TlwvkW7s6+3RYuvCetcjxpkkepXI7etisRkqWg57s/TDxmGxOGuoLdX7xk73WK7ejiOD30pTz5mUcAPkukFyDTNbNG4LZksvxG/id8mgf/Tvs+m1NTrz66T8PXS5bBKYLx7VSTxy7MzxE/52sf3GRccK25E4VRceQ/U6L9X5DmGMUd3ONtMk6nkH9Gtuf7WefvVTw/mPN3/t1eqVl09U1150f73sj8uRAkqM/eRZWHLskvfue/2WILuxAJzpoTpb76bLdTKtqRJ0a1/7CNvP2taxtG0//PXWniXyWg7Rejt+Lugzo0rs7TPTYumMrXV39Z07LhhLt6ecdajatudL9TJxfXSI64OZVlwvLS434fckGQbFQYufFntDY8TWq23F5TAmW70fT/3z8NvzsdjsH9+fGk37p0DMbJHJMuqYLcRv4ncbWWT8Fvs/17w996WTgf4HM4/70uxMF2g3bTFbjBKTe0ugfSPEDA0ZGDYAo+ZVJwNF+4S9ScxkUb3tY21Ym7H9tN0oBona9G8KQnzTJzdi5ovGC/jyf7u8ni8laYd2M+24jukCbSI0W4SMlnEHyC3NdIF204b4LXI1XaDdzPO+dLgrAmBCJOrw/TiJmndD54/MEHvaKLPC5mVuNKFttK1vbpjhIjSV2aJiy0L7Wa8XoX1V/C7nYXFGzYH1ZTN/SkQ3juENpMZ70Q0mwKIhrkPOyGzhi0SQK8RvKJlF6B/TBWZKTNTCXERGPl8MMjVkZKhHiowNzavni/B7lfjzIf46M0VUpzaFjuFPhZkyridMt1u7Lft1mvrHEGbs+CVn3BPWjT1dXncKX8SAxUFch5yJmS02bovMFr5IBClD/IaSWaT+B75epC5c559KN65SeN8br+rMTYZEHQpamKjbQqmvF/mv/DizY29tYMg8sZ4pMmNkeqhniuq1XtuaOWP1oTEi/HprV9j+fm8ZrddyrB07V1uvcxL+tnYsazMXwi7t/vgBk3ZPJ66XRWpxfdK4rJjM60XloEHIp0EYc4XirmLuNAfIJX7DKJQQv8Wwrxeh/7LI6b50oOkCZTHpu5IStWhyENtGaaaLmRw+ZlhYvZkXvuliy8IMD9vHDBUf28+Op2XNW1vd14/clzGsLTOAjJjp4p+TsJ40/n4pE0v8lfT73dknTdqhLFKL65PGZSiLSX+HFXPdtNfknrbZYhC/YRRKiN9iWNMFyiKn+9KowtW1RicDMArmIvrClo74zFx7sF4hMjeEmSEyLmLmiY8ZHa6Ni+t5Ye1Z8bHj2faaF6oPt3Xn4nrRjILMlhwMl1iXdiX90xo/4OXfE9dhdFKJ63rl7so9u+uvfFHKKNPATG6Lu2a2tO3zz8RvGIdc8nLuS2Ec2qb/aE8XKIv9R79dHTj2nXp+HEfRRO0jUacQ0Evr6WKEPUisx4ota956qPi9Smw7oXrrsRJuI9z6A+vtaVu9umRtaN6Oo239bQw7T7Vhn7EOz0moB4wzfdIzX2I9WzRuy/JFFzYm/bN4kgR5kXJcR98wiJWVleq+Bx6s58f5HR6mR+GsQN8wCOI3lEyu96UoHMZGoo6N/JyK4QIOmR0qztjoHVfF79FivWGsh4rmDWvDrxMyQcI2tU1YJ6xOxzGs50t4LB/bPtZmm4n1bLHBGq/Y/d5WPWWFciCuQ8409Si0QXIBUob4DSXTdv1jusDIxEQtTNQE9rSwnikyU2RoaNnqzMhQvXqZWG8S9TSxXiX+PiqhKRLi9nVjudhxhI4V9laxtqxeU6GeLVZ0XiIV08U9Ye19ympmS9u6tEM5ENchZ/qZ3DJbiLuQMsRvKJlU9I/pAkPTT9SM25IeZlKYCaJlqzMDJFw2Q6Rbf3FdrzasuP26PWQMvy1X3L7+cXzDRXTb7B7XjuEX/5WkNmNmiyX+bR0/AMqBuA45089sIe5C6hC/oWRS0z9jusDAd+ckatHkIKZMqWO6wHwJe7YImS3jdmfnnWkYRMpxHX3DIAaN6aKY66a9ZksberWgbxgE8RtKJtf7UhQOfZGwJWpf2G11EAHaRuwpq5J+xg+ARUJch5yhRyHkDPEbSiZl/WO6QBSJOuyyRVAHGI5+Xdrb8KQVyoS4DjnTZHLLbMHkhtQhfkPJ5KB/Xi+Cnm5c6sL1zEtP1/OGRC1yDOqTvl6kLs28XpQ+S0vbOnOTYU9YfWbRpZ3uuzCIlOM6+oZB+K8X6Tf45MmT9byhmKvY20aDG33DIIjfUDK53pdiukCPuEMk7BzNFmNS0wXyYNKxeWS2uGlvz5ZZ9WohqYFBpBzX0TcMwjddfGYZd6cF+oZBEL+hZHK9L8V0gerwnw5VXzlyW2fJkbvZYoz74/B/ffRwdfi//7qeh3RZfeHFejqJ6RL2brGnq7Pszk5SA4NIOa6jbxjEiRMnqu89+IP1GJ6C2WKgbxgE8RtKJtf7UkwXqJHAf/niwXq+BLPF4MehXJS033PvgXp+HNMl9iqRkv5Zmi0GuoVhSDWuo28Yht8dPVbH8W1LZyRhthjoG4aB+A0lk+N9KQqHmuXTL6lFXZLhAjAOTYM18kUiaBvEdciZc8/ZXu3ccUFShgvAsBC/oWRy1D+mCwDAEMTMFnVp54tEAAAAAADQBKYLAEAf+pkt+hQpZgsAAAAAADSB6QIAEMGN2bJxkFzMFgAAAAAAGBZMFwCAADNbzHCxL2NgtgAAAAAAwChgukCNvomuotGiAUol9iqRmS0MkgsAAAAAMFtyvC/FdIFa0AeOfacu+i66CuYLlEST2cIXiQAAAAAA5kOu96WYLrD+HXRDwsZ8gZI4efJkZ44vEgEAAAAALIJc70sxXaCHt5x2QWcO8wXyRwaLwSC5AAAAAADtIKf7UkwX6GHPG66qPnvhrfXUwHyBHNmyZUt16SX/qrpyz27MFsiSlZWV6shvnq5+d/RYpwYgH9A35Az6BsjrvhTTBaK8741XVTe86eNRh1EDGwHkwLnnbK927rgAswWy48SJE9UPf/RP1cOPPFZ978Ef1EV1ADmAviFn0DdALzncl2K6QCMStgQeilwDG930s+sxXwAAWspLL71Urb7wYmepqp+W3nPvgerRx35M8g7Jg74hZ9A3wEZSvy/FdIGB9BM5rxwBALSbzZs3d+aq6qlfHamT94OHfkHyDlmAviFn0DdAL6nel2K6wNDERG5duzBfAADaydLStuq8885fmy51aqrq8Z8+UXdZJ3mH1EHfkDPoGyBOavelmC4wMiZyBtsFAEgHJe9nn719/cmpuq9b8q4BGwFSBn1DzqBvgDip3JdiusDYaFAjvnQEAJAOStiVuIfJuwZsvHf//STvkDToG3IGfQM00/b70k2vrdGZ70GD0ejdKCgLv4vWKDzz0tPVI398qJ767N1+bXXNOX/VWWof19z+aj396qeG8x9v/prbfv/n8CthcaBbGIQ+N3rfAw/W836CHnLy5MlqdfX5emroq176lLo+q74I0DcMAn1DzqDvjXBfWiY53ZdGFS4nCGHDKFjXrvDikI740hEAQDuJPTnlSxmQC+gbcqYUfXNfCqPSxvvSaE8X64oj/C46kD8Spi/OcYk5jMunX1K7i5q2BZ44QYqgWxjEsE9KQ/TUdHV1tbPkeM+731ntuOCtc3tyir5hEOgbcgZ998J9abnkdF860HQZt1sPgJC473ruW50lR5vMF5IfSBF0C4MYN2k3wuR96Yyt1fJFF84leUffMAj0DTmDvnvhvhSmxSLvSzFdYC786A8P1Q6jTxvMF5IfSJFxdXvb3kN1Mvf86gv1MuSNBlgU4yTtIjZegJL3d+26rNq5Y3Z5AfqGYUDfkDOl6RvTBebJIu5LMV1grshd9Lt2iUWaL5gukCLj6PaVl09UN777ofVEDsph3KTdmHfyjr5hFNA35EwJ+haYLrAI5nlfiukCc0fibsuI0pgukCLjJu3XXnR/vby0tFRPoQw2bz51oqTdiCXvs/hSBvqGUUDfkDMl6FtgusCimNd9KaYLLIw2mC+YLpAikybtkz45g7JR0n78+LHOkuPit+2sn5xOI3lH37BI0DfkTBv1LTBdYNHM+r50uCsCYAYoaCp4hgFUn/NScFWQBQCAdqEbvvPOO7/niftTvzpSf6b04KFf8BleSBr0DTmDvgHizPq+FNNlAE88frAzNzrad5L9S8EXuWGuNuYLAEA7WVraVifv/lP3x3/6RPW9B39A8g7Jg74hZ9B3mnBfOntmdV+a5etFowjqne+5tDO3kb/767vXyj3V95/8bqemmVtu/Hw9vfNvv1hPheqe/MnB6mOfvq4+p499+vqe46l9N72n3mbX5Zet14WE++bMPEeU5vUiSBG6p0PbiI0XMO5gjegb2gb6hpxZtL5Fzq8XcV+aNtO6Lx3uikgMCWTfTZ8fWEIhSYBhEdouVm9oWSJuEp+EKZ78yc/rqfjwrr+sRa2y6/LufmonJFZn6Nx0EVkJzy1F3vfGq6rPXnhrT1CdhsMIAACzQTeBuhn0bwj1pZWHH3msunf//dWR3/S+Iw2QEugbcgZ9zxbuS9NmWvelWZouxh3f+GJd5NYJTa3OF5QRXhQmKgmwt74rUqH91J6JWPgis4tI7Rg6B3MqdVH4+2pezqRKPxdR7apNO09NdX65YF27YiLff/TbnRoAAGgL/ZL3Rx/7MV3WIWnQN+QM+p4t3JemzaT3pVmbLhKGLw51kwrrYugiiJWmC0KikiDl6Dmn0F0k/sUh1IYv+qZ5J1pX/PoQHVNt6iLRhaB5of1yQcKOidwGNQIAEIcPH+7MdYnVNaFth91+lHZLxU/eDRuskeR9esxCi+h7MOh7usQ0N4oOte0kup10/9xA37OB+9L0meS+NMsxXSQyE1Y/JFaJwrD9mt6Vk9AkWid25wBKzD7uIrhsrR3nOkrY1p4JVRdXuJ+Qy9jkCGrdoIvSzn+YbVPlrue+1fMpr8/s/MJE47wwpgukCGMC9PKJT3yynn79639TT4077rizTqT37bulWl5e7tQ6VH/gwH1r9RdXe/fu7WlD67RvbL8DBw7U+/nHakrWbV871t69V/fUNREeMwc0XsDq6mpnyY0XsHzRhdWOC9664TOl6NshjbjyVKcmrhvpShoOkaZj66RhN3Wa9Nej7/FA3+Mzr/gtbetaUr0wjVpbvn6F5rXOtjNUr+2bsPZzYtb6FjmP6cJ9Kfel4nW3rtGZX2fl5ePVI3/8YT3/jjPeVW075c/q+VT4/v5/rI4+d7wWmv2T/WUVieCcN22vPnzNB+r1wvYTWh+Wo88dq6eujcvq7YS1p4tl3+03V+e+Wc7wpvX2JOo7//N/rR488I9r686u99UFoPa0Xvvd8qWb67Z0PrEiXLsbce6j686lv9G2zwkNYiRR//yFf+nUrP3wdQYxmoS/f9h5jv/m8k31dBAP/LPb/oYrh9seYBaMo9vXXn25uuRMd/N2+umnV69//evr+VywG1NLmi2R1nLshvSb3/xWvY3WraysVI8++mi97Z49V1RnnXVWva/qwn1dEv7Uer0SebWlbf2iNtWW0Ly1p2NoWTcF4T4q/n45sXnzqfXXMjRQ4yuvvFKd/N//u3rufx6tfvvs/6heffWVauuaJk855ZR6W/TtMB36SB+mU2lQ0z179nTWOn2aHrWttKqi5bPOOrP6j//xP9XLylFMZ3bNCPQ9Huh7MpwmZxu/tb3qtE7Hs23s2JpqWcV06m9vRdeR6nUct9/hnvnY+abOrPUt+uXV3JdyX9o2xrkvzdp0ce+eORG5f/z19T9edebu+UKw/bRtUxG+uDW1dRKoBCi3UEK2C8W/iCR+oe0keKHtJHod///9f+6p9w2LXRQx9t30hfVj6W9sughSxUaN/u3/6jqJe7dfW910/r/vLI0PpgukCEm7wz25tKeV7kZyZeX3dd2jj/5TnTgrGbY6/+bym9/8Zr2sonUumT6rTqjdfmeubbWpnqretekSdK03tE7JeVjUriXimmrZJepnrq3fUy+H+1gir/lckfaUwL/yyv+3IXnfvPn/rN7whj9D32tIb7qxDJH2nP421VpUkW5MW9KV9K5le3JvejUN6km8bgy1rCLQ93RA38Mzz/gtbHvV3Xjjv+up0/6aSps2NV3rWjED6Mtf/r/r/aRla0P7qt6dZ9ewzJFZ6VuUYLpwX5oH496XZv16kZw6YaK0ZWHrY9241A0qhrpmybmTa2fduMzNM9SmrdNFIKFre6HtrItVuJ/QdnIahbpzhW01YReq2tT5++eXMrFPdEnUk/Zu8eH1IkgRuqc7rPv5sFj3dSX7SqKHRTepOk64j5LwUbqShzcOIeoiP2qbKRP7TOnFb9tZffm/XV7Pl65v6TTEbv70WkWIq9erD07fpiN71cKfD3UYuyZG1SL67gV992ee8Vu6C/Vp15eMEltn15Wb727ra1fb6tybCF+TypVp6luU8HoR96VpM+l9aZami72XFhOzERO39gvrBuFfSBKgxOkL0c5FmOgkRnsHzy4WoX39d+6ErRtGrHbBjPo3tI0mUb9966UTjd8SA9MFUgTTxWEJu6Z2M6qn+36d/56+n0Qr4bZlbaftw3f6Db/Oxg6wRN6WY9i5+DcItl+M0m5KjePHj/Uk7v/wtPvdK13fYtgbU7vRM91rKi3ZvprXDaVdJz42LoZA39MHfccxbZpmpY1ZxW+t17WkeW3na1Zofbivrgvb17a3Y6gtO1etk6Ztu1JMF2Ma+hY5my7cl3JfKoa7IhLC3DX7B6uY2CQQq9N6H9tvVNSmjdIcw46jqQnUPx9D8xK2zsM/F1uOnZ8Tcz4jQkvUX/71rT3ClpjNRZy24QIAaaPk14pbdkmyLYtwG8NerxBKlg3NWxH+fvZkVNiTTiXefrJvy36dpn47QvuHpTTc4Iwbn5RCL9KOaSpcDnUlnIlyda1h21Z1hq9x07lA39MFfffHdNPV0ezit6bSrK1zx+oWp+feOtvXN2j8eddDxr3y5dp186WAvofD7t+4L02Pad+XZme62D/bF84wjLufBClXUc6h3LyuI3h3XSe3UUjQ2s6OE+sqpmPbxSdiF6iPBK9j6jh2fDHq37BoYqIWErVGgZ7m60QAkAdKcnWTqGIJtpLebp1LgJUkW12MMKH2i24UrW3hJ9VK0rVeyb8r/g2xq7N59/S/93UQl6R32y4Nl7Cv1kWc/+Y/r96167Lqit3vrZehi9PKxhs8V3o1JM35JawT0qPp1c27Xi7oe3qg7/5IG91YPZ/4bVo1/Ybb+8W/ZqznSjjvY+cb1ucK+h4e7ku5LzWyMl30z/a7VMWQwFRMdGKY/Zowp0/dreQsqiuWCc1123LFCb/rDIbHUb2JVEVoe1vWOYdI9LpIdN4qdg6j/g2LQqJWiYn6G++4G7MFAPriJ8nCJfJuuZvIb6wz/ITfEmoV/wbTkmhtp2LLmtqNqYqPXqNouknwURu6CbCi9sKb19xQsv7ss79dT9aFkvUPfuD99RTi2NN3w5ZNj4Y0apo0zfrLItxH2LboezLQ9/BYXFYR0l8Yq2N1xijx28fXruncSmz7EG1jmjY9a1+ryxn0PRrcl3Jf6pPV14tsdOQPX/Ove0ZKNiFrlOVNm9x2EoBt17TfMGj0Zxt5Wmh/CXzf7f+hrrNSi7fetvcYrv5f1+cjNI0V7WPH8FF9eA4pYKIOR36Wg6h35OYFXy+CFOHrF90vpugrE/pahYpLnN1ndPWFCj199Ov8hFqJtyX7qvcTevtqjL5OYV++0Ncq9DUMJdlqV+t0TLVhX7HQNv75aN5Q+9rPnZv7pKmm/jY6D/8cc0LJ+vHjx3u6oitJv3LP7ur8897cqXGg7y7u6yv6EotDGpJGrE5TXzfhdWEa27dvX605d53s3aBH9D0Z6Hs0Qp06Xc4ufhv2+XPto6mOq+NY0bIwHRumZ/uSkoxI1Wkfoba0rKK2w+Omzqz1LXL8epHd73Ff2n7mcV+a5UC60F6aHMRF9WphIF1IEQbS7SU2QKcl5e5pZO+Nnp+wW1Lv14lwP63XshJubacnqtZ7QPOWiGs/fxvD2lcburG1+fDJqP4WO6ccULLuPxUVeu9/+aILqzPP7JoJPujbYTryUZ0INS1NmWZMQ3ZDaE/j3Y2l02t4faDv8UDfkzOP+C1Mw3YsO65dH4Z/XO1jejd0TMOuKb/Otdl77FSZl75FzgPpQnuZ533pcFcEwIRI1OH7ceYg8hoRAIyLkmgRJs5N+Am0n7DbDaqhbbStoe3CRFrrY8m11aldw9r32/TnhW2fQ8KuZD3shq73/q/+yIfq9/6bEnboIh1I135pqjfNmKaaTI0mbaHv0UDf02Fe8Vv4+xnaxhkn3eKz8XjumFbsvKXpbh36Bmg7i7gvxXSBmRITtTAXkS8SAcA4KBnWk0pNLREeBiXEeoqpp/SaVxuWoKsd/wmnbgjsGDG0rfbRdnbzIFwC3ntO1kY3aXeJv9q3Ysl9ykm7ezLa+3TUknW990+yPhymv9gNodaF9aZhacfvpSLsRlDLprthQN8bQd/TQXqRJkyTvpb6Ie2MG7811Tpff7aP269rbBqmZR3PztH0bMcWdixX1zUjUwN9Q+4s8r504OtF6sJ1/ql04yqF973xqs7cZMS6a4lZddkaF14vghShe7rDkttYwm5PP5Uw+0l2SL82lKS7ZL67ztpVkm74SXasHWGJv52LfyPg07R/CsSSdSXpow6wiL4dvq6Gwb+hjGlXy7a+6fpA382g7+liuoppokmfIf3akPZUmq4BGSV++3ZMGS/9dB5qOkTt9TvntrJIfYthXy/ivrQscrovHWi6QFlM+q6kRC2aHMS2gekCKULSDm0iTNaFEvVRk3UDfUObQN+QM23QtxjWdIGyyOm+NKpwda3RyQCMgrmIvrClIz7/DACQH0rWY58Pve6je8dO2AHaAvqGnElJ39yXwji07b402tMFymL/0W9XB459p54fx1GMddlahIM4DvR0gRThSSksktiTUXVFV6I+jXf+0TcsEvQNOdNGfQvyajByvS/FdIGxxd0kapFKzxZ+HCBFJk3albCTtJfD0tK2ztxkzDpZN9A3jAL6hpwpQd+CvBqMXO9LMV1gZHHHRC1S6d3iw48DpMikSTuUxaRPxpWsu2k3YZ9Fsm6gbxgF9A05U4K+BXk1GLnel2K6wNDizslsMfhxgBQZV7f/5d8+U/3Lkz+v5yF/Vl94sZ5OkrSHT0eVrCtRV8I+K9A3DAP6hpwpTd/k1WDkel+K6QIDxS1Ri1iXrVTNFoMfB0gRdAuDWFlZqe574MF6fpykPUzWhRL1WSbrBvqGQaBvyBn0DSWT630pCoe+mIvoC1ui5otEAAD5oWQ99kWLqz/yobkk7ACzBH1DzqBvyJ2U70sxXSCKRP3lX9+K2QIAUACxZF1d0S1Zn8W7/wDzAn1DzqBvyJ0c7ksxXaAHiTkmahXMFgCAvOiXrH/wA+8nWYekQd+QM+gbcien+1JMF+jhmZee7sw5TNQYLgAA+aBk3RWSdcgP9A05g76hFHK6L8V0gertWy/tzHWRqHmVCAAgPyxZt4Rdybq6oJOsQw6gb8gZ9A25k+t9KaYLVMunX1J9ZucXakFjtgAA5ImS9bAruiXrmgKkDPqGnEHfUAq53pdiukCNBC5BY7YAAORFU7Kurugk65A66BtyBn1DieR4X4rpAgAAkDEnT57szHXf+1eyTld0yAH0DTmDvgHyANMFAAAgM0477bRq6YytnaVuss57/5AD6BtyBn0D5AemC9TsP/rtuhz+06FODQAApMqWLVuqK3a/t7pyz26SdcgO9A05g74B8gPTBWqj5cCx79TlK0duqwvmCwBA2px7zvZq544LSNYhS9A35Az6BsgLTBeofvniwc6cQ4YL5gsAAAAAAADAZGC6QA9vOe2CzhzmCwAAAAAAAMAkYLpAD3vecFX12QtvracG5gsAQHowVhfkzMrKSnXkN09Xvzt6rFMDkA/EbyiZHPWP6QJR3vfGq6ob3vTxaM8XXQQAANBeFK8Zqwty5cSJE9UPf/RP1cOPPFZ978Ef1EV1ADlA/IaSyVX/mC7QiAwXGS+h+aKL4KafXY/5AgDQUhirC3LmpZdeqlZfeLGzVNW9Xe6590D16GM/xnyB5CF+Q8nkqn9MFxhIP/OFHwAAgHYT67FI7IZc2Lx5c2euqp761ZHafDl46BeYL5AFxG8omZz0j+kCQxMzX/gBAABoN4zVBTmztLStOu+889emS52aqnr8p0/UrxxhvkDqEL+hZHLSP6YLjIyZL/wAAACkA2N1Qc7IfDn77O3rPV/0+pGZLxpwFyBliN9QMjnoH9MFxkYXAO47AEA6mGkeJi+M1QU5IMNFxktovmjA3Xv334/5AklD/IaSSV3/m15bozPfg05cfwSURSjkYXnmpaerR/74UD312bv92uqac/6qs9Q+rrn91Xr61U8N5z/e/DW3/f7P4VfC4kC3MAj/N7xfXI/F7uXTL6njtqaLAH3DIPS56PseeLCe9w2WkJMnT1arq8/XU+Pcc7ZXV+7ZXW3ZsqVTM1/QNwyC+A0lk7L++xFVuHooYLjAKOiC0IURXhzSEe47AEA7icVueixCLsR6vvClI8gF4jeUTGr6j/Z0sRMW/qsjkD8SrQl3ElJxH3HkIUXQLQxi2CdFIT/6w0N17PaZd+xG3zCIYXu6hKjXy+rqamfJ8Z53v7PaccFb59bzBX3DIIjfUDIp678fA02XUf5YgBCZLnc9963OkqNNFwA/DpAi6BYGMW7SYiwyeUHfMIhxTRcjNF+WzthaLV904VzMF/QNgyB+Q8mkrP9+YLrAXGjrBcCPA6TIuLq98ZPfXf8hg3IY93c81mNRzHqsrnH1fdveQ/XN+POrL9TLkDcaIFeMY7qI2HgvMl/eteuyaueO2eW9xG8YhVLi96C82r8Rh3JITf/9wHSBuaJeL+EFsEjzBdMFUmQc3Z5y1qFq254vdWqgJCb9HZ938jKOvl95+UR147sfWr8Rh3IY13Qx5m2+EL9hFEqI36JfXu3fl0JZpKb/fmC6wNxp0wWA6QIpMmnSzlhdZaHf8Gn8jsdi9yxM83FNl2svur9eXlpaqqdQBps3nzqR6WLEzJdZfOmI+A2jUEL8FsOaLui/LFLTfz8wXWBhxC4AMU/zBdMFUmTSpJ24DpOgmD3LsbomNV0m7fkAZSPT5fjxY50lx8Vv21n3fJmG+UL8hkXSxvgthjVd0D9Mwqz134/hrgiAGaCgqeAZBlC9s6ngqiALAADtQvH6sxfe2vPE0ZJiYjekjgy78847v6fH1FO/OlJ/ZvrgoV/wmWlIGuI3lMwi9Y/pMoAnHj/YmRsd7TvJ/qXgmy8GPwAAAO3mfW+8qk5efNOc2A25sLS0rTZf/F5Tj//0iep7D/4A8wWSh/gNJbMI/WdpupjZMUzpx9/99d3Vvps+31nqzy03fr4uPra/ploXHk/1Kh/e9Zf1VOutnbAMOtccWKT7CAAA4xHrsWixW1+cAEgZva7mv7KmwZrNfDnym97XowFSg/gNJTNP/WdpupjZMahoOx8zYvwizBAJ6w0tP/mTg9U733Npp6aXj336+nr65E9+Xk+FM1ruqcuuy7v7qZ2QWF2IztEMmtTBfQcASAvF61jyotdFb/rZ9STvkDQyXGLmy8OPPFbdu/9+zBdIGuI3lMy89J/160V3fOOLdfnYp6+rlzW1Ot/oMEKzxswOGSO99V3zRGg/tWfmivCNGTN31I6hc/j+k9+t52XW+Ptq/s6//WJdmowcHx1Lbet8hzFoUiF2AeC+AwC0l37JC6Y5pE4/8+XRx37MK0eQNMRvKJlZ6z9r00WGhW9a7Lr8sg11MWTOxEqTUSOjQ0aJepnYq0KhaSPUhm/GNM1rfyt+fRPaTsTOL3UGXQAAAKMyTFxtQvtOsn8p+LHbMNOc5H16HD58uDM3PWbRZm745othg+1ivswW4vfsIX63F/Q/e2al/yw/GS3zY5geHzIp1JvEsP2sB0qIhCozxZkwrmeKTBYfZ85cttaO6w0jw8XaM6HL9An3E+r9ovZjaF3MLPLPSfP9zj8H9Jkv/xPTn9n5hYk+8cUnoyFFSvzk6CiJQj9j3Rna3bjcD3tdM/Y7YTFXvwX+8cwE1zHs98DqQsJ9c+ZHf3ioeuSPD3WWHE2faeST0Q6ZH6481amJGyJ79169VvZ2lrp84hOfjK47cOBAZ3rfhvVap/qvf/1vOjXxY4rl5eV6qvXWll/XhG2TE6urz6+V1c5SVS2dsbVavujCascFb93wmWnid3+I3+1j1vFb5PzJaPSfNqPovx9Zmy4SjJCw/GUhQTWZLv52ISZEic0tdwXqt6djap3aU72mwvYN11t7/YiJW+aNHdfOP0fTRYIXvugldJkuk4DpAilSYtJu8W0QYVwPkx2Lu4rFSih8/Bir/UKTXfhxVvPax9b7ZrrOQ+t0DLWjZR+10WSmGzpXO3//b0qZ0DgXYfKC6dLljjvu7Mw5ZGbItFhevnjdvPBNDDNAbF7Yepki1p61IfqZLrYcov337bulntdxrF2rC8/b8PfLkePHj1UnT57sLMXNF+J3M8TvdjOr+C1yNl3Qfzn678dwV0SiSEgqJgqJx+pCAfnIQGkqISZWYfMSrkTqX2DuAumKW+dk6zVVzxgJVPvFSjiOjND2wj+HHDGH0Tdc9m6/dmLDBQDSQz/0KoqpQlOri8X1MK5a3FU8761nrK55oIQ5TJotoWasri6+kRGider9IjNERdupqN7MFM27XixXd/bqItNDRWaLGS7aXgaL9apx8649294vfruhAdO0TwnYK0f+eC986agL8TttiN+Tgf7TZlL9Z226yMVTMVFJZFbXTwR2AYTFLhIftWntS/hq27b3xSt0TBO9Cd5QG9rO9hW6YGzZF78wQQv7u+xv0rx/caWKzJYv//rWDWbLN95xd+0qAkB5KE76P/oy08O6GIrfsdKU6CieKu4qnspIV12Y9Ai14cfbpnn3W+HKMPFZ24nY+aWOEpZY8sJYXV3MPAnLoHU+brvldQOmH850ua+eCjN0rI1Y8dGyjBUzccJtVUrBH+/FN19ssN2SIX6nD/F7fNB/+kyi/yxfL7IuUv4/W0KLLcu1M7RfWDcIMzu0ny4au4AMOxfhLhL3apHEr2UJX1Ohfc2t9C8IN91ouqiNJmTUDLqI20rs3TmZLW/feulQ3bdGgdeLIEXont5MGMNtPzPBQ/x4bHHWj9tC68L4bO1ZAqJ4G+4nFIubYnVTnPbPSfP9zj8Hwi67v99/Vz3l9aI1jXR6sAzCXgfyzRMZHbavMz4uXjdSfFRvZonGgREyULSdLccwI0dtGrZfDLWldaX0ejHCV47+4WmX1xG/N0L8To9pxG/B60XoP0VC/fcba3S4KyIhTEAmXBUThQRpdVrvY/uNitqUmPyLxMeOo6ldEP75GJrXBaHz8M/FlsPzUxs6rl/sWJqPXQhtJ9azRcKV4TLqYEUAkCcuueg+4bFllX74T2r8YomIj9+exW7FVCUuFouVDClJUXJhbSgJ8WO+loWmsdKE2rTj5oxivoqfsBDnNyKjwn9VyF+OGRzORLl63Xhx23V7wqjeL4ZeKTLs1abwOLbs12kanoe98uSX0nCD6z7fY7hc/LadnbkysdhK/E4f4vfomDbRf/o06b/fNZCd6SIRilH/2ePuJ7GaeOUemnjVnurM2ZTgtZ0dJyZYHdtMISHR2nKKJsqwSLSh2SJs3BZeJQIAQ3FSxWKiEgmrs4QhhuJzUwlRW4bNdxOUrgGuxMZPLnROtl5T/R4o5mu/WIklTOP+FqWG4r5ifvj6KGN1bcSZI0/VJVz2TRNhBohvhITL7jUgZ+D4rwRZ+0LrZZTYuC+2vdqwOpt3vVt6X28KDZ3SsK8Z2ReNzn/zn1fv2nVZdcXu99bLpaK4pkL8Thvi93hIFyroP23G1X9WposcPAlFIjJBh8j4UPGFN8x+TZhrKPG63iaXrRswqrOiZR3Dtg+Po3rtZ0Voe1vWOQ9Cbfa7aNuGRGvC9ZFwGbcFAGJYDLdkQz/ysbgeEj6lsaL4HKI2rX0lF2rbtlecFxbD/bhuCYehNrSd7SsUo205TEzUTvh32d+keTtOyijmM1bX6MjU8I0NWzYjxZDRYT1LzPjwl0W4j7BtbZ0zVJzxouKj14T8XjFNqA0ZMlZc75iNY8/khMyWZ5/97brZImS2fPAD76+npWOxmvidJsTvyTCto/80mVT/WZkuEoczOTY6bGZGaJtwu377DcJ6ovhtmbBVZ0XHjx1D9TJquucQL1o/CLVtvWTajpktBG4AGIYwIbGYPgjtp20VQ2NFcdPitWHJgR+3bXtDyYWKxWdLOLQsLHYrvuuJkD0V0vn4y0247bp/c/j3p0ZTskJvxv7IqLBeJoZvmsjE8Nf7RofmzTzRmC9+T5YQM1zMFLFjqD52/H5tNWE9ZHKkyWy57qN7MVvWCOMX8TstiN+TEf7/0X9aTEv/2b1eZOLyUZ29oqN5K/52sf3GJdaOGTPhOjsv4Z9brOTApC4hAJSHn0QoZoZx0+rCRMb2GxW1qURGbcaw47ikxsVm/3wMzSs50Xn452LL4fmpDR3XL3YszYe/HykQi/l651lxXzGfMQCakeHhBsW1V4lirxe5Eo7Hom18humZEporNkCuGTCGjJmwfUP79DvWsL1kUiFmtmjclqs/8qHabNmyZUuntlwszhG/e/++FCB+T47pBP33/n0pMG39Z2e6QDuZlksIAOVh3V79hGAYxt1PiYa6w+rVTj39sac6ak919tRGSYS2s+NYF1wfHduSKhFLvHIkFvMFcX94rOeJX5rq/Z4poqlHSWigGDZGi4/aim1vdb554htCRpPx03QOKREzWzRui8wWjdty5plndmqB+J0exO/pgf7TY1b6x3SBmdJPuOO4hABQFnqaoiRBP/ZNP/JKHFT8LqzD7NeEPcFR91r3tIaxuoZFMV8lFvPp0Tg8Mixcj5XeHi22Lqx3PWKcSaJXifzeLmaoaDnszdIPG4clHNdFbaneN3a6x3L1dhz1bLHS1HMmJdwAuW6QXMPMFo3bgtnSC/Gb+F0y6B/9+2x6bY3O/Dr+99D1LfTzT03re+gwPu9741WducmIiVaY2dIWrrn91Xr61U8N5z/e/DW3/f7P4VfC4hhHt6ecdajatudL9fINb/p4HdtTQU9ilDj4SYHqlBToSYw9yRH+drH9xkXHCttR0uGSit5jqF7npTp7itTEqE+x2kxTsjJqzB9H36+8fKK69qL76+Wzz95ebd68uZ5PmVFfw5GZYYaGM2ZksvQaI7ZebcuskTnimyBWL8PF8M/Db8/HTBf/+P7UaNo/BWJmi0yWUcdsIX4Tv9vIIuO36JdX+/el6H900P9gpqX/fgw0XaAsJg1mEq2YtXCnBaYLpEhpSTu0m2knK5gu0CZCs0XIaBl3gFziN7SJNsRvkavpAu1mHmaLEVW4DRIDMAomXF+80hFdEgEA8kMxn7G6IFdi47bIaOGLRJADxG8omUXoP9rTBcpi/9FvVweOfaeeH8dBnqdLOG3o6QIpwpNSWCSxmC+mFffp6QKLJNazRa8SyWiZxpgtxG9YJG2M34KeLjAPZq3/fmC6wNimS5PZIlIwXASmC6TIpEm7rnHG6iqH1MbqmtR0keGC6VIOS0vbOnOTMWuzxSB+wyiUEL/FsKYL+i+LnMYaxXSBkU2XNgh3WmC6QIpMmrRDWUz6ZFAxX8RM9lnE/ElNFyiLSXs2yWxx095BcqdtthjEbxiFEuK3GNZ0gbJITf/9wHSBoU2XnMwWA9MFUmRc3d74ye+uX+tQDpMkLbG4P+uYP66+/8u/fab6lye7X4KAvFl94cV6OonpEvZuGfeLRKNA/IZRKCV+D8qr/XsVKIfU9N8PTBcYaLq0ySWcNpgukCLoFgYx7mujxiKTFfQNg1hZWanue+DBen4c0yX2KpGMllmaLQb6hkEQv6FkUtZ/P1A49MWE64tXwuWLRAAA+aGYHxvRvw0JC8CkyGyJfZHo6o98aC6GC8AsIX5DybRd/5guEKVJuJgtAAD5EYv5wpIV4j6kTMxs0atEZrbMYuwWgHlB/IaSSUX/mC7QgwTbZpcQAACmR79kBZMdUqef2fLBD7wfswWShvgNJZOa/jFdoIdnXnq6M+cws4XADQCQD0pWVEjWIUfcmC0bB8nFbIEcIH5DyaSqf0wXqN6+9dLOXBcCNwBAnliy4icsxHzIBTNbzHCxzz9jtkAOEL+hZFLWP6YLVMunX1J9ZucXatESuAEA8kTJSuz1UWI+5EDsVSIzWxgkF1KH+A0lk4P+MV2gRsaLREvgBgDICyUpsWRFhZgPqdNktvBFIsgB4jeUTE763/TaGp15gOK45vZX6+lH/mJTPR3EA//sLpf9n8OvhMWBbmEQ+49+uzpw7DudpV7anqygbxjEyspKdd8DD3aWutirRG1+jQh9wyByiN9f/dRwer35a2579A1GyvrvB6YLFI39OIwKPw6wSNAtDOLwnw5VXzlyW2fJkUqygr5hECdOnKi+9+APqtUXXqyXUzBbDPQNg8ghfmO6wLikrP9+YLpA0dz18Hjyv+HK4Z5QAcwCdAvDoMTlly8erOdTSlbQNwzD744eq82XbUtnJDVALvqGYUg1fmO6wDRIVf/9wHQBAAAAAACAicB0AYiDwgEAAAAAAAAAZgCmCwAAAAAAAADA1Kmq/x/g9mSMRUCafAAAAABJRU5ErkJggg==;" vertex="1" parent="1">
          <mxGeometry x="-60" y="590" width="600" height="127.85" as="geometry" />
        </mxCell>
        <mxCell id="Upq6xmgnHAcSHIq_n58L-26" value="" style="group" vertex="1" connectable="0" parent="1">
          <mxGeometry x="620" y="200" width="230" height="90" as="geometry" />
        </mxCell>
        <mxCell id="Upq6xmgnHAcSHIq_n58L-27" value="G1(Garbarge First)&lt;br&gt;&lt;div style=&quot;border-color: var(--border-color); position: relative; margin: 0.5em 0px; padding-left: 1.5em;&quot; class=&quot;MachineTrans-Lines&quot;&gt;&lt;/div&gt;" style="rounded=1;whiteSpace=wrap;html=1;verticalAlign=top;fontSize=16;fillColor=#ffcd28;strokeColor=#d79b00;gradientColor=#ffa500;" vertex="1" parent="Upq6xmgnHAcSHIq_n58L-26">
          <mxGeometry width="230" height="90" as="geometry" />
        </mxCell>
        <mxCell id="Upq6xmgnHAcSHIq_n58L-28" value="以Region划区&lt;br&gt;JDK9后服务端默认" style="rounded=0;whiteSpace=wrap;html=1;glass=1;fillColor=#ffcd28;strokeColor=#d79b00;gradientColor=#ffa500;" vertex="1" parent="Upq6xmgnHAcSHIq_n58L-26">
          <mxGeometry x="15" y="40" width="195" height="40" as="geometry" />
        </mxCell>
        <mxCell id="Upq6xmgnHAcSHIq_n58L-29" value="" style="shape=image;verticalLabelPosition=bottom;labelBackgroundColor=default;verticalAlign=top;aspect=fixed;imageAspect=0;image=data:image/png,iVBORw0KGgoAAAANSUhEUgAABHUAAADwCAYAAACOoFhVAAAAAXNSR0IArs4c6QAAAARnQU1BAACxjwv8YQUAAAAJcEhZcwAADsMAAA7DAcdvqGQAAFyoSURBVHhe7d1vrCVVne//4jfya2igmRFoGAWFRmgvIBoHDT+bIMZo4iQ2yQwjIRMTBzTGBzwTnZt4FZT8chWTeeBNJmZ0IJkHDKhMuiHByI2DRBiijlGU1uZqS9DLtZs5Gg7Y3L4EuP2p2p/e66yzau/a/87Zq9b7lVR2Ve36sxu+q876fveq2se9clQFAAAAAACArPw/g1cAAAAAAABkhKIOAAAAAABAhijqAAAAAAAAZIiiDgAAAAAAQIYo6gAAAAAAAGSIog4AAAAAAECG+ElzYIw7H5quiVx35XGDOWDjEbfoYs/Br9Wvbzz54mrnSRfV8zkgvtHFyspK9ezqc9XWrVurs87cPli7/IhvdJFrfAPzkGv/ZVEo6gBjXH3ry4O5yez5FAPhsHmIW4yz/w/7qi8cuGWwVNWdoqvP/KssOkfEN8Y5fPhw9c0Hvl2tPvd8vayk98pdl9cJ8LIjvjFOzvENzCrn/suiUNQBxnDn6n1/1u0bsPv/vWlSdK6wmYhbjKNvufYe+vpgaSiHzhHxjXE0iuHe+x8YLA1d+IYd1VsuvWSpk1/iG+PkHN/ArHLuvywKRR1gDHeuvvTRbp2lG7/cbE/nCpuJuMU4YafodSeeWz31wpP1vC1z54j4xjhh0rtly5bqyJEj9by97a1vrs479/VLmfwS3xgn5/gGZpVz/2VRuPoDAFC4XX9yVfXJ82+uX83DmzVpHsjVtm2nVmeffc7R122DNVX1/R/+uL595fF9P6tvZQFyRXyjZPRfGhR1AABA7YpXX1Vd95oP1d98mTtHfighkCslv2ecsb0e2SB6HomT3wO/WvtNL5Ab4hslK73/QlEHAAAcow6ROkZx50hDnW/4ybUUd5A1JbxKfOPk96GHH63u2XMfyS+yRnyjZCX3XyjqAACAdUZ1jrglC7kblfxqZAO3rCBnxDdKVmL/haIOOlN1UxMdeQAoR6pz5CHNFHeQu1Ty+9uDh6q779lbPfLo90h+kbVljO87H3plqgmYVEn9F4o66ERBr+qmK5x05AGgLO4c8TBl9JGT3/Bhs0/84kCd/PKwWeRumeL7nx96ZaoJmFYJ/ReKOujk588/Pphr0JEHgDLpYYT80gT6il8SQp8tU3y/78+O6zQB89Ln/stxrxw1mAda6bYrjdIRVTufemHtg9Z2nnRRdfWZf1W/9s3Vt75cv37po91qoDd+udl+z6eomWLzTBu313/kG8faOsoRDk2ehP4WPPz7B9f9Tdi9/Zr6b8KiTBvft+zeV62srFTPrj5XL6Pf9AwRCW89mcSRI0eq1dVn61fbdsrJ1VsuvaTacd7k7aUr4htdlBbf4/rVYa6CcuTWf1kUijroJLxQuvF893cP1o0h1MfiDkUd5GiauD3+9H3Vqbs+N1iDkkzbKbKN7hxNE98vvXi4uv6tDx5LhFCOaZNe2+jkl/jGJEqIbxnVr/ZoC5Qnt/7LolDUQSepoo70pSGMQlEHOZq1qBMOTUX/6Zo+S6fIUn8TFlHsnzbpveaC++rl8NYD9N+WLSfMlPRaKvk968zt1ZW7Lq+2bt06WDM74huTKCG+pWtRh/5LWXLrvywKRR100lbUsVRDkD4UdyjqIEezFnVm/eYDZdPfgjufvmOw1Jhn52jWpHfWb7ZRNiW9zzxzaLDUuPANO+qRDfNIfolvbKZljG/pWtSh/4JZLLr/sijdWhMwhi6euojGF1IVgnJ/8BQAYDL6O8DDlNFXKpjED5vll7LQF8Q3SpZr/4WiDuYqVdyhIw8AZfIvTYTFfv4moC/8S0LhqBh+KQt9QXyjZLn1XyjqYCFc3OFbWgBAaiSn/ybo9l4gZ7rdKbzlSQ8rdvJ74Fdrb0sHckN8o2S59F8o6mChXOWkuAMAZXOxP+4c6TbdG35yLcUdZE0Jbyr5fejhR6t79txH8ousEd8oWQ79l5kelBw+PBfliAO6q1wfpsyDkpEjHpSMZZf6m9D1YYQ8SBbLLvVLQl0fNkt8Y9ltdHwLD0rGspil/7Io3VpTghoPBR1MIocqJwDIj7//+GBuctp3lv1LEf5NMEZybr79+/cP5tp12aZ04cgG88NmH3n0ezyPZAKpeJs2BrXfRsZvX9sK8b286L8s3jL2X6YeqeMPLuGtNeg/BXJYlJnWMlY5UxipgxyVOFJnko7Im9928WBuvX/6+7uOTndX33rsG4M17T5+/afr1y/+42frV9G6x37wePXBj32g/kwf/Ni1a86n4zevd9fbXHrZJcfWxeJ9++y7v3uw/psQavubwEiGob179x5NHJ8YLKXt3HlhtXv37sFSQ/vt3XtvddNNHz/6/s4163bvfv+67c3bfOUr/zBY0564+rh638cN17XxNn2iUQ2rq6uDparadsrJ1c4Lzq/OO/f160Y2EN9DH/7wR+pXxWnottu+WMeJYsrCONZ8GGuOde2n5TB+Te9NIv5MEh5fr/6cqW37ZNHxLX0eqUP/JW+T9F8WZS5FnRwbD5aHijp3Pn3HYKmx0Q1hFIo6yFGJRR13Rsa59LKL13Ri4s6UOiju1KjDEgo7KNrvphs+XW+nzov5c6hTpXnt4/ffe+lf1q+iz6H3dA4dR8shHeO2r362tVOkz+nPHv57cqe/B2GxX+K/CSS9Q04iw+Q2pGQ2lVQqWY7XO4EOxdvERR0vx8L9nNyK17Ul0H1PgJ955tCaW1ZSyS/x3XBsxxQjqfWKG73nOHZx0sfRexK2F63z+lT8jxK2AQnPFRZ1/LlKsKj4lj4Xdei/9EOX/suidGtNwALpwsvDlAHMizoSmtRZEb16XdzxEHUu1Cnx5I6Vvolau/6n9XrTfjpe2CEKO1h6v3m9u34VfQZ/gxZ2lkTz6txoausImTpXOq4+qz9vX6hDHnfK/TeB23TbabROakpxQqzE1vMusij51HonoRrlI9pOyauP2cw3ibKS1ngKi0zeRkbtUwIVXMKiC78klKY40aQ4cvFE84qTeL3iSfOOWcdS0waGt1uF8ypEegr5WKMmn8fa2pqPrVe1L08uAvUR8T0b+i9528z+C0UdLA3/UlaqIVDcAdCVOhRhp0LfJMXrUppvrNZPbR0pdUbUkdG3WU0npelchZ0q0THCzlLbvPb3FK5PaftcfaG/A6nOkZ7Bpr8HWE/Fl9SUoiTTiamSTI1QULKrdWECrGXfhqVl7RcnxdqmbQppWcm2jxdvq6kUSnhTya9+SUjPI8HaeFHMqYjj2NG83h+uHxYnxfu6ACSaDwsyLtBofUozAm3tFJ6jC2+v13DqO+J7evRf8rdZ/Rduv8JSSj1vRzbjl7K4/Qo54vardupMhMN9w+HGKeqgqLPTdJLWD0OWppNyydHjNN+GqUPk47mDo05ZvJ/o2y8dP0XvtXXm/Lmk7bP3RTyk+T/23Fm/cvvVMGEcxwlxk6A2xRjv5+RX24S3oGi9k2Dz+35v1C0rSrZF57PUMU3H0nttiXZfxbes/MuTzbf03H6l59F4pNgT9XwYS7FUbCmum3gfHqeJ9bUjyRzLjr9UXPs9fS4dQ0Uh0bKE7+n4bmdar3XNv4f4nia+hduv6L/kKO6/fGLHZxZyK1a31gRssFFVTn4pC8AoTedl+E2QlzWNEn7TFE7xsGUJj6fzqLOkzos6Ru4E+RswdVx8DHVy/Ln0qmXRa2oqnR4+qCnsEC36vvRcKElU4qlEUcnjuEnbah9RYul5JZhaVkFHBZ+Q9vN2Er7vRNYjJXSMcDlcp1fPm/aPp9I0D5dd/7PQaISxJ4pRj7BRfImXNSnGtI/jyaNrNLkd+JhejmM8pOOFx56Ejivxsf25S0B8T859C/ov+WvrvyyqD0NRB0ttVHGHW7IApKiD4k6KqKPide6QpOjbqbYppmOZ54cdoOG3beo4udMk+kx+X6/qLKnjpf1SU6pDVgr/mkT4ixIaralvudAknE4QNe/ijOdTU7PP7mP7ufCi5FdFHyWiWhcnyC7mhM8N0XZ6rzne8JjDc+w+Nt+ce+2tYDp2WzJdAv9akH8x6JzX/mn1lksvqd5x+dvrZQw57hQvilPHqng5Lgo28fVEHX+KZ8WguB2ICzbaZt7UHtwm1H70eXVen7vviO/puK9C/yVvm9F/oagzB65qTkP7zrJ/KcLijvG8HQAp+oZJkzsz6nR4XdhhiaW+adKU+oas+RasOb46Lzq2t/dQYnfKdE5f57VfSMfQdt5X/A2YprDzVQp1hj7/y5vXdYa++qa7Nvz222XnBNHFFxdJlEBqOZ7E2zbzT9QJsTQFmCYJ1TZhIUhTkyQPf0HI24fHtibpHv8wWB3D59Gk47U9B6gvlOz+5je/PpbsipLdd7/rnfUrxgsLJo5Rc0yF68RFoHi920yK3msKMpM/2NiFTX1OnXvUefqE+J4N/Ze8bWb/pdiijospXaZRFOBqEF24UYa8vxttfL6m4d1VV1D1qvd9nHga91n7QMUdfikLQErc4Rn1rVZI+2lbdU5Skzom6uiEHRRfb5tvsTSUuflmTZOpw6NJ72u99vGyNPsN72X3t1r6POFyKdo6Q/pmi2LOaEocw0TWhREnuOLXOLlsCinNdkpCVehRkUaFGW3r42per+GxReudYFuzffqXt0ZxItxHbcnuB/5iN8luiybe1hZhJFyXej+meA7j1DGsYo3eG1W0UUFmXFFG72lym2kTt5M+Ib5nQ/8lb8vQfym2qONiyrhJ24UU1PEkLrjE603LCvSwwYTc2MJG0BRymkYVNu644UtqXUifz8WfPuCXsgCEfM3VtTL+WU1dX70u7ijF1+qu3FEKH1gY8nmaTlNzfQ8/j2le1/3474aXp/18OUl1hnTPuTpE6gzxDJ3x4sTTIwS0rPVhcqz3fNuJCzmm7bXOhZw4YY6TUh1b4u2UNLclt81nbU+iu47yyUUq2dVzRd7/vvfUye7WrVsHaxFTHIpiadoRXIol7a/YjQuGbfErbiPh5M/TRudIHcva2kTOiO/Z+e88/Zf8LFP/pfjbr4ZDxIaVR6+LG4/ExSAXU1R4Wbt+bYVS+4WNQ8Jgd/FIxzF9hnAYXNyQ4obfxsWhpnrarwaWet6Oizs8TBkoh6+h4XWyi2n30zVeRfLh9bW55ut4Wudrra7P2s7n0XU9Fl7PRX8rRl3ffQ79rTEt51a0T3WGhNE53TlJbAowTdKrdUpkncDGCbHf92icpojSFIS8TstxgqrjxQlrc+z1SazXhcWZ8LkoFs6Lt08dMzepZFfPFVGyq+eKnHbaaYO1GGVU4UUUQ3EceV0z6Vezmmc7meabgubaEW6ifRSHo6aYjqGiz/qikbZvPr9oPrV/jojv+aH/Qv9lHoov6ijgwqDTMLJ4XYqHncVTWyFIDUSBP2xETXHIDcfFHB0jrnZaXATyNK4S2va5+iJ83k5Y3PHDlAH0m66BupbqOtd27da1V5OvudJlvza+7ur6quK7/na4g+S/B5pcUPf28Xm0Xvt5Em3v5baOjj5zPE36b9gs6gxpSnWGeG5Od03y2SSMTl5FCarmVZzxsrbTshNd79eMXhj+UpUTXG2jAo9vW2njxNjbmo7RHHftKCDxer2KC0suJon2z5WS3WZan+zquSIku905/hyfEseG33c8OXYlXKf4cpx6Urzp1bFpWj9qirdPxau20bZ6z6N8NJ/aPyfE93zRf6H/Mi/HvXLUYH4iHg0hcTKdg7hxtFGgufoo3s8jaGIKcBVrmgbRVE4d6Kb3fA+iqNH4eGHDifcTVUnD6mZI77U1Cn8uafvsfXHn03es+fk4VUxnGf529a0v169f+mi3GuiNX2623/Op4mum2ETTxO3xp++rTt31uXo5t+u6CtwuypuL3roW+3or4Xap/aalc8XH0d8MrYvPofX6XFqnzzCK/5b0QVtnaNKO0DTx/dKLh6trLrivXj7jjO3Vli1b6vk+iUcBuKiiJFJTPJJglLZ9dA4VjZSkWnjetnM4kXUC7GW/2iSfcdmkkl0luZM+U4T4brTFoKTi0FSoCQtBYay5+GkaxabtNGk/LY+LwVHn9ns6f+qz6/1cY3wz41tG9atzzkvpv+RhXv2XRSm+qKMCiyiYw2VRsaWtqBNuFxtWOptAdsDHx9M59Z6Op/V6Fe8bv9+lYbQ1bB2r70UdNTYJG5yKOSrqzIKiDnJUWlEHy23enSGSXiyTONkVJbqTJrtGfGOZLEN8S1+LOlhuy17MsW6tqcdUKNHkYoiqkV6nQkobFWjaplhYjPG8RuGEt1+Jijlh8Uafye/rVZVaFXm0X2oKK7mlcYMLG50a3KwFHQDA9HRt3uxfhAAWRckuv/iDviK+UbLc+i/FF3U08kaTizEqmnhdWHCJ6Van1JQawaNj+vgqvujY3t6jZlxU0jk1qka0X0jH0HbeV1QE8nJYPCpFW4PjuQwAsHlS12bxt1v8ohVylkp2/VwRJbv84g9yRnyjZLn2X4q9/crPqwlH46igkloOb7/SfvG6cVwg0n4qysT3JobPzglvvVIBSMsq5rhYpH3DZ/GI3xtV1Onb7VdqcKnG9saTL557Y+P2K+Ro1tuvdE0/5wSGL5fiildfNZibTeraLO4Mzcust6fo1hRuTynHtm2nDuZmk7oNRcmuEt15PiCW+MYkSohv6Xr7Ff2XsuTWf1mUIos6LnCExRmPptGIFxdcVIyR8Bk48X5daD8fU+dJPXCqrYCkAoxeXezR/jqeaB/RfqL3w+OG+lLUSTU4FXE0LarBUdRBjmYt6qAss/4d17VZ2r7ZmrdZk16UZdZnzCjZbV7XjlyYd7JrxDcmUUJ8S9eiDsqSW/9lUYos6riIEhZwuhR1Uvt14UKMizBhgcajbUTrXQDyaB3Nh0WdUJdRQ/E5bNLC1GbbzOopRR3kaNq4vf4j36j2Hvp6PY9yzPJ3PHV9XvS1edr4/ru/fqr60WPlPn+uNKvPPV+/zpL0xqMXlOxO84s/kyC+0UVp8T2uX73n4NfovxQot/7LohRX1PGIlbioERZ1NC/h6Jm2/bpwcSgs1njUjG+dEhdf4nO4qKMRPt4vJfXZXFCK+bMsu2WonlLUQY6IW4wTdoCn+Tu+mZ0h4hvjrKysVPfe/0A9P03Sm7oVRYnuIpNdI74xDvGNkuXcf1mUIkfqqNAR3wLl4ocKHeGvSIXbpfabls4VH0fFH61L3Z6lz6V1Lji1yaFQ09WyNDj++CBHxC3GmbZT1HZtFortWBbTJr1tya5HMGwE4hvjEN8oWc79l0Up9kHJWF7LVj3ljw9yRNxinEk7Ralrs1BsxzKaNOlNJbuLfK7IKMQ3xiG+UbKc+y+LQuvA0lCDS/08+Sd2fKY3DQ4AcpO6Nouuz199011cn5E1JbttP9/87ne9c8MTXmCeiG+UrKT+C0UdbLpRDU6Nbd4/UQ4AGE/XZk0Uc9BHzciFtaMXSHbRF8Q3SlZi/2Uut19pyNM5J3D7VSmuePVVg7nZpBqbuJizLBgmihwRtxhn1PDlts7QslybiW+MM+r2lFSyqyR3Ix4S2wXxjXGIb5Qs5/7LosylqIOyzPoMJTU2yaXB8ccHOSJuMU6qU5RLZ4j4xjippDdOdkWJ7rIku0Z8YxziGyXLuf+yKFO3Dt0So/9QwCTc4MJGpzhiKD8AbB5dk1PPNCupQ4T+UrIbP1dEia5uRVm2hBeYFPGNktF/aUw9UgdlmfQp47Gcq6d8o4AcEbcYJ7yux5b9+kx8Y5xwJENIt6Io0V3mZ4oQ3xiH+EbJcu6/LAqtAwulYg7VUwBYPm88+eLB3JCuzYycRB+ceOKJ1bZTTh4s8ZBY9AvxjZLRf1mPog4WIlXMERdzSBgAYHPpNupP7PjMsUI7xRz0ydatW6t3XP726spdl5PsoneIb5SM/st6FHUwV6OKOTQ4AFgu6hhRaEdfnXXm9mrHeeeS7KKXiG+UjP7LWhR1MBcq5rQ9N4diDgAAAAAA80dRBzNzMSd+bg7FHAAAAAAAFoeiDqaWutWKYg4AAAAAABuDog4mpiIOv2gFAAAAAMDmoqiDiT31wpODuYaLORR0AAAAAADYOBR10MkbT754MDfErVYAAAAAAGweijroRD8b94kdnzl2mxXFHAAAAAAANhdFHXSmwg63WQEAAAAAsBwo6gAAAAAAAGSIog4AAAAAAECGKOoAAAAAAABkiKIOAAAAAABAhijqoLM9B79WT/v/sG+wBgCQM67r6LOVlZXqwK+erH578NBgDdAfxDdKRv9lLYo66EQNZu+hr9fTFw7cUk80IgDIF9d19Nnhw4er73z336qHHn60+uYD364nrQP6gPhGyei/rEdRB538/PnHB3MNNRwaEQDki+s6+uyFF16oVp97frBU1aMZ7r5nb/XIo98j+UX2iG+UjP7LehR1MLHXnXjuYI5GBAB9wHUdfbZly5bBXFU98YsDdfL7+L6fkfyiF4hvlIz+S4OiDia260+uqj55/s31q5EEAEC+uK6jz7ZtO7U6++xzjr5uG6ypqu//8Mf1LSskv8gd8Y2S0X9pUNTB1K549VXVda/5ULJCqgdXAQDywnUdfabk94wzth8b2aDbV5z86oGzQM6Ib5Ss9P4LRR3MRA1HDShuRHpw1Q0/uZYkAAAyw3UdfaaEV4lvnPzqgbP37LmP5BdZI75RspL7LxR1MBejGlFJQ98AoC+4rqPPRiW//JIQckd8o2Ql9l8o6mCuUo3IQ99IAgAgP1zX0Wep5JdfEkJfEN8oWUn9F4o6WAg3Ih66CQD9wHUdfebkN3zYLL8khL4gvlGyEvovFHWwUHpoFU8kR85WVlbqe9D1zRYAruvoN35JCH1GfKNkfe6/HPfKUYP5ielhQ7o3DWUJh7BN4qkXnqwe/v2D9Wto9/ZrqqvP/KvB0vK5+taX69cvfbRbDfTGLzfb7/kUNdPcqXOjjo7uQ5dtp5xcvePyt1dnnbm9Xl5m08bt9R/5Btf1AuV2XZ82vm/Zva8u1D67+ly9jH7ztTu89WQSR44cqVZXn61fTX8H3nLpJdWO8yZvL10R3+iitPge168mLy1TaXlpm6mLOq5qoTzTNh7LrRFR1CmXijoamhy78A076k7P1q1bB2uWzzRxe/zp+6pTd31usAYlye26Pk18v/Ti4er6tz54LBFCOaZNem2jk1/iG5MoIb5lVL+avLRcpeWlbeZS1AmHMKH/1HBmaTyWakQ7T7qobkB6XRYUdcoVFnXUYQo7PLLMxZ1Zizpc18uS23V92qT3mgvuq5fDWw/Qf1u2nDBT0mup5FcjN6/cdflc/w4Q35hECfEtXYs69F/KUlpe2mYuRZ1ZK2QomxrPnU/fMVhqLFMjoqhTrrCo42/C1OFZXV2t14m+zdp5wfnVeee+fqmKO7MWdbiuYxaLvq7PmvTO+s02yqak95ln1j5nbZ5FfuIbm2kZ41u6FnXov2AWy56XtunWmoAF0oWXh24iF3rIYNhh1lD38CGDALiuo990/Y8fNssvCaEviG+ULNf+C0UdLA0/kTysrpMEYBmpw6PCTqq4c8+e++pfywLAdR395l8S8t8B4ZeE0BfEN0qWW/+Fog6WjoZNxkMn3Yj0ZHtgWbQVdx56+NG600OHB2hwXUeftRX59XeAIj9yR3yjZLn0XyjqYCmp4aQakX6q8IafXEsSgKWSKu789uCheqjyI49+j+IOcBTXdfRZ6u+Ai/yM4ETuiG+ULIf+C0UdLLVRjWgZh76hbO70cB860I7rOvpsVPJLkR+5I75RsmXuv1DUmYMff//xwdzktO8s+5cibETmoW8kAVg2vg89LO5wH3peuK4vHtf15bR///7BXLsu25QuTH7NRX6S38mk4m3aGNR+Gxm/fW0rxPfyov+yeMvYfyn2J80nCdg3v+3iwdx6//T3dx2d7q6+9dg3Bmvaffz6T9evX/zHz9avonWP/eDx6oMf+0D9mT74sWvXnE/Hb17vrre59LJLjq2Lxfv22Xd/92D18O8fHCw1FvVzc9P+9OItu/dVKysr1bOrz9XLyJO+gZLwW6lJ6KdB9TPoejX9DLp+GnTHeYu7bpb4k+Zc1/M2yXWdn3we2rt379HE8YnBUtrOnRdWu3fvHiw1tN/evfdWN9308aPv71yzbvfu96/b3rzNV77yD4M17Ymrj6v3fdxwXRtv0yf6O7C6ujpYav4O7Lzg/Oq8c1+/7meiie+hD3/4I/Wr4jR0221frONEMWVhHGs+jDXHuvbTchi/pvcmEX8mCY+vV3/O1LZ9suj4lj7/pDn9l7xtZF7aptiijoN2nEsvu3hNsMeNToHs4Fdgh8JA1n433fDpejsFuflzqPFpXvv4/fde+pf1q+hz6D2dQ8fRckjHuO2rn002Hn1Gf24fuy+N7M6n76ieemHtfbzzbkTTdq6uf+uDxwoCyN+sneSNLu6UWNThul7OdZ2kd8hJZJjchpTMppJKJcvxeifQoXibuKjj5Vi4n5Nb8bq2BLrvCfAzzxxa93cgTn6J74ZjO6YYSa1X3Og9x7GLkz6O3pOwvWid16fif5SwDUh4rrCo489VgkXFt/S5qEP/pZz+y6IUX9RRwMljP/jp0SAbVh1FQSepCuY4qUYicUMMG5+W3ZD8voJcjcjHcyMMG4qOoc+eajzh51WD83yXCm4u1HhUHY0b0e7t19SNaFazdq7CW3CQry1bTphLJzlV3DnrzO3VlbsuX/dt1ixKLupwXc/fuOs6Se9QnLDG/F5YKAmTTdH74XE0skejf7TsxFjzzTRcPy5RDd/XPjpHeLyY3o8/ax+l/g6ERX7ie328qODimIvXxzHjfbVe22m+Tbhv6lgpOp7O4aKOj6/9wvc8r2OGUiPn+mQR8S0lFHXov+Rv0Xlpm26tqccUbGHAqeHE61KaYF4/xZVKGTaQa+tgVmPQOjUCB7OCX3QMNRBrm28aTDOF62M6p46pxqKGq3kZtU9udOHWBTy+iPuhVZtNxQA9Y4Up72leHWQdRx3usNPNL2XNF9f1/C37dX0ZKVFMTSkevSNKPJXMOvnUq3jZyaeWtZ/f17yP0zaFtKyk18eLt9VUitTfgfBhs1gbL4o5F3HExZ3h+vcfi0vxvpq8XvMqtDjONK9J61OaEWhrp/AcXXh7vYZT3xHf06P/kr/N6r9w+9UYagypimhbRVFBqUbRNKb1w9WkaWSXHD3OT+tlNRwfz0GtxhvvJ6p66vgpqYpozJ+/y7a5ioe+fWLHZ2Ya8sY3Zlik+D50edtb35y8D30SJY/UGYfren7i6/p/7LmzfuW6PEwYx3FC3CSoTTHG+zn51TbhLSha7yTY/L7fC7ePKdkWnc9Sx7SuIyX6Jr5l5V+ebBKd0uNbBUcXJjVCTPNhLMVSsaW4buJ9eJwm1tc+i8ex7PhLxbXfC0fjiJYlfE/HdzvTeq1r/j3E9zTxLdx+Rf8lR/POS9v80c1HDeYnsvLiM9XDv/9OPf+mU95SnXr8H9fzufjWnn+tDj79TB3IDqJwWZOC7MzXbK/ee/W76vfF+4nej6eDTx+qX5tjDO9l9PHUGG+69cbqrNfqafHHHTueGs0X/8t/qx7Y+69H3zuj3lcNTMfT+9rv45+7sT6WPk9qkua47XQO0fbjts2NHlKlRvPT5340WHP0D/DgPsZZ/PNDTd3zzy87rn4d5/5/f6V65eUXq4tOax5cedJJJ1WvetWr6nkg5pFc4k7P0//rYPXr3/zP6uWXX6pOPho/xx9/fL1+EtPE7R9tfaY64XUP1ctc17muL4O26/qvf/LOer7k67KSxL/92/9cPfLII0fnlaiOnpxg6gH+ilPtL0owtV5TMxph+NBlbXv66acdnU6vl8P3dd5w1I2Oqe2VzPp4mnw+HUPzu3a9o55XgqtjhFNzvtPrbUrgW1TCEZoXvmFH9fCB19Tzpfc7br/99kFsNbF4/fV/U8ec406xqMKK1yl2FNe3337HIJ7+o95P824HTTy6uNNMinGdR23E8ef28vnP/9f62NpO9J5j1Z9DyxK+5+29nT+H/g06RwnmGd9y3ZXt25OX0n9ZNovKS9t0K5H2WDMMbPh0bgWs1ylg26iK2TbFXBkVz6vaqcqmGpSp4eqc3sYNTvTa3F/ZDI9LTa6wtnG1Vefwv7cv/NTx8MnjundR1VAgByrsxEOV/TPoB3619r5cjOZrONf1vHFdH00Jp0cbaD4szmg+NTX7KAFu9nMBRsUajUxQIqt1vk3Fowv0vjhRFW2n95rjDY85PMfuY/PNudfeCqZju7BUIo/S9EjNc177p/UzR95x+dvrZQw57hQvilPHqnhZsRhq4uuJOv7C26zcDkTrXRSaN7UHt4lwdJzP3XfE93TcV6H/krfN6L8UX9TRsC9NDnoFp9eFgR3TMLHUpAYQ0zF9fAW5ju3tPbzNwaxzOsi1X0jH0HbeV9QQvBw20piOqXPLqO1yo0bz+V/evK7RfPVNdy30YVTAIqigo8JOXNzRfej37LmP4k5HXNfzxnW9OyeILr64SKIEUsvxJN62mX+iToilKcA0Sai2CQtBmpokefjQV28fHtuapLspBI2iY/g8mnS8tucA9YWS3d/85tfHkl1Rsvvud72zfsV4YcHEMWqOqXCduAgUr3ebSdF7TUFmfCzHXNjU59S5R52nT4jv2dB/ydtm9l+KLerEDUNB2IX2c0UxNSkw1SDCAHVj0H5qXHrP25sahia9r/Xax8vS7De859HVT32ecDllbcMZDuvLWVujUQWUTj9yN6q4w8OU23FdzxvX9ekpcQwTWRdGnOCKX+PksimkNNspCVWhR0UaFWa0rY+reb2Gxxatd4JtzfbDUT1dORHuo7Zk9wN/sZtkt0UTb2uLMBKuS70fUzyHceoYVrFG740q2qggM64oo/c0uc20idtJnxDfs6H/krdl6L8UWdQJg1kPm9LkgFJge13coLzfpNygwgdbhXyepnE1jS78PKZ5NRJ9jvCzeDn1+bQubDjh8XKUajS6P1ENR41mEQ+eKtmozkmbtn26HGua8/VZWNyxJ35xgF/KSvD1j+t6friuzy5OPD1CQMtaHybHes+3nbiQY9pe61zIiRPmOCnVsSXeTklz2/W8+aztSXTXUT65SCW7eq7I+9/3njrZneWB+H2nOBTF0rQjuBRL2l+xGxcM2+JX3EbCyZ+njc6ROpa1tYmcEd+z8995+i/5Wab+S5FFHQ8fmzSQpt1PAa+hbbpfUVVOVy91PK1zdVYNphly15zHQ9lCOrcbt6QuAKFwqJzOrfN5ykmq0Qjf4i6OOtbhkHp1RtqmUNu3XuO/DWu+MQulzqXJNK994nVtU65U3Dn77HOqbdu2DdY0xR09b+fxfT+juHMU13Wu6yXyda0pwDRJr9bpeuoEVsthQuz3de3Udb4pojQFIa/Tcpyg6nhxwtoce30S63XhNT98LoqF8+LtU8fMTSrZ1XNFlOzquSKnnXbaYC1GGVV4EcVQHEde10z61azm2U6m+aaguXaEm2gfxeGoKaZjqOizvmik7ZvPL5pP7Z8j4nt+6L/Qf5mH4oo6qhCGQ9VSFMCaHNTSZb82rlSqIqnKqIaquSE1VcpmahrWsLIZn0fr4+DX9l7WZ07RZ05NOVCj0ZRqNDxfYbH8jaw7S+rst03mbePOlzsxXu/tRtE+qXOFHSTRsbRer55PTfF+OdLDlFXcCW/J8sOUSy7ucF3nul4iXe98XWuuf03RRNdZzas442Vtp2VfJ71fM3qhmbSdE9zwWqr5Nk6Mva3pGM1x144CEq/Xq7iw5GKSaP9cKdltpvXJrp4rQrLbnePP8SlxbPh9x5NjV8J1ii/HqSfFm14dm6b1o6Z4+1S8ahttq/c8ykfzqf1zQnzPF/0X+i/zctwrRw3mJ7L/D/uqLxy4pZ6/7jUfql534rn1fA5UJVQAh8GpdQpOVRxdsZRwu9R+09K54uMo+LUuPofW63NpXVjhTJm0WrvM2hrNRjeYq299uX790ke71UBv/PLL1UsvHq6uueC+ejl8LkoO1NlQJyc07Bjp5z+Hz1VQ50TUYdH6sBOj95vXnXVnSq/q1Pj42ke8n48ddt7ahO/7eE2nTs+DWN9Z0vs+f1/oZ0LVsfLPoMu2U06uhzvvOO/cqeL2+NP3Vafu+ly9zHV9clzXx5vXdb2063JX8SgAF1V8nY1HEozSto/Ooet1eD0Nz9t2Dl+bff32sl9tks+4bFLJrpLcSZ8pQnw32mJQUnFo7hOkYk37hMK+StNXuHBsDI46t9/T+VOfXe/nGuObGd+y51Pt25OXzob+y3jLkpe2KbKog+W2bI2mxM6VO+jqmDSdkmHBRJ0edWTcAdI6FWi0j4s8pu30vtZ7Hx/Dx0ztp+1SnaU2Oqb2aRMWlfomVdzR/eyf/++X1fOlFHWw3OZ9XSfpxTKJk11RojtpsmvEN5bJMsS39LWog+W27MUc69aagA2gRhPfn6hGw7MVNp6KLf4mScUQz6t40kbbaNuweOKCjuhVxRxNXhbt51E7on01eTh+amoKQXuPLbu4VCJ13OMOvJ63ow4+sNm4rqPPlOzyiz/oK+IbJcut/0JRB5su1WjEVVB++WRzqGiiQolG1KhwonkPWw5HxYTzsfA9F120TscUnSN8FRd9mpE8w+HTXg7X6TU8h7hwFE591nyDtn6kzh8dzy9OYPNwXUefpZJdP1dEyS6/+IOcEd8oWa79l7ncfqUhbuecwDC3Ulzx6qsGc7NRo4kbjLjRLItSb78Kb4lqiim76wKJijMeWaNij4oqGlmj9Xpf27r44/Vx4UXC9T6ueP9wtI/e13LqOP6sfl+fScJtfS4fsy+ags7aTpfvb58mbsPbr7iulyW36/qs12Vdk7k9pRx6yPw8xNdc0XVX19x5PiCW+MYkSohv6Xr7Ff2XspSWl7aZS1EHZZn1XlU1GmmrgC6b0oo6LqKEXBDxehdHwqKOl8UFFe/jgk3I+/l8Wta8jzW8Pav5ZRUfywUmSxV1ws8kHgkU7pezVMdLnS5NNmtRB2XJ7bo+63UZZZn177Cuuc3r2iL6vJNdI74xiRLiW7oWdVCW0vLSNlMXdWTPwa9Vew99fbCEUszSeFJV0GVvNKUVdVQA0UgZ/7qViy0qpnjZBZO4gBIWhFx88bKOZ+Fx4vP5l7RcyBHP633xeulS1OmLtmKObreKh0NP22m6/iPf4LpeoNyu69PG99/99VPVjx4b/pII+m31uefr11n+DsfX3XBE5KIQ3+iitPgeVdQR8tIylZaXtpmpqINyhBfKaRpPzo2mtKKOxcUSFVY8kkbLLrzEBRRvJ1qfKsRoG2ne33vseC7q+BhxgSfcxvw5dYywEBWeT1TsiUf55CJVzFEhZ+cF57d+i7aoThP6I+frOvGNcVZWVqp773+gnp/m73BbEX2Rya4R3xiH+EbJSs5L29A6sFBqNKknh+fecEqjYoqmpnCy9rk2a0fgDB+uLJo3HyNcJyqyxMfUNvE68Tqdx/z8nvhcIW+fOuYyU6er7WGF77j87QsZFg2Mw3UdfZa67irR9UNigZwR3yhZn/svFHWwEKlGI240dPzz4pE1KtaoYKJlr3OhROs1SsajYTRSxqNiwn00xUWXWLNv8ywdn0d0rni0jY/l9XoVjczxpM8luRR1mm/Q1g+JVqfr3e96J8UcbAqu6+izUUV0Jbtcd5Ez4hslK6H/QlEHczWq0Xz1TXfR6c+MiyAusmjZ61xgiZddcBmuv7Ber2N4avYbjvCx8FjN1Owbnics6MjwmMPz+hzhFN6ytcxczHHHS50udbgo5mCzcF1Hn41KdrnuInfEN0pWUv+FZ+qgk3H3LqrRSFsFNGelPlMHG8vFnJCKOdMOh+aedYyT83Wd+MY44545omtu87o22V2GUQvEN8YhvlGykvPSNrQOzEwNR40mbDh8gwt0k/oWTZ0uD4kGNgPXdfSZi+i+7jIiEn1CfKNkpfZfKOpgamo08ZA2Ov1AN6lijodEL8M3aSgT13X0WVsRXckuRXTkjvhGyUrvv3D7FToJh7lpiNtTLzxZz5sajfSx0cx6+5WGxHL7Vf62bTt1MDcbf4MWWsSQaIY3Y5ycr+vEN8YJb0/R3+AjR47U86Zrrq69y1hAJ74xDvGNkpWcl7ahqINOwsYTU8Ppc6OZtaiDfpj12Ugq5jSva0fmzLuYY3SaME7O13XiG+OESW9okdfdeSG+MQ7xjZKVnJe2oaiDTvb/YV/1hQO3DJYapTSaaf/4/P9/sb/a/z9+Wc8jX6vPPV+/zlLUiUfn+NszdbwWhU4Txsn5uk58Y5zDhw9X33zg28eu4Tkku0Z8YxziGyUrOS9tQ1EHnakB/fz5x+v5khoNf3zKpU7T3ffsreenKeqkbrVSp2uRxRwjbtFFrtd14htd/Pbgofo6fuq2U7JIdo34RhfEN0pWal7ahtaBznaedFHdaGg4wGhtDyvkF62wbLiuo8/OOnN7teO8c7NKeIGuiG+UjP7LWhR1AGBOUsUcDYnmF60AAAAALAJFHQCY0ahijn5KlGIOAAAAgEWgqAMAU2qembP+IcgUcwAAAABsBIo6ADAFF3Nc0PEvT1DMAQAAALBRKOqgsz0Hv1ZPeto4UKrUrVYu5vAQZAAAAGCxyEvXoqiDTtRg9h76ej194cAt9UQjQknaijn8ohUAAACwMchL16Oog05+/vzjg7mGGg6NCCU5cuTIYI5ftAIAAAA2A3npehR1MLHXnXjuYI5GhP5TAcd4CDIAAACwHMhLGxR1MLFdf3JV9cnzb65fjeIO+mjr1q3VxRf9p+rKXZdTzEEvraysVAd+9WT124OHBmuA/iC+0WfEN0BeahR1MLUrXn1Vdd1rPpSskOrBVUAfnHXm9mrHeedSzEHvHD58uPrOd/+teujhR6tvPvDtetI6oA+Ib/QZ8Q2sVXpeSlEHM1HDUQOKG5EeXHXDT66luAMAS+qFF16oVp97frBU1d/23n3P3uqRR79HcoDsEd/oM+IbWK/kvJSiDuZiVCPiliwAWG5btmwZzFXVE784UCcHj+/7GckBeoH4Rp8R38BaJealFHUwV6lG5KFvFHcAYDlt23ZqdfbZ5xx93TZYU1Xf/+GP6yH9JAfIHfGNPiO+gbSS8lKKOlgINyIepgwA+VBycMYZ249986vh/U4O9EBOIGfEN/qM+AbSSshLKepgofTQKp5IDgD5UEKgxCBODvRAznv23EdygKwR3+gz4hto1+e89LhXjhrMT0wPG9K9aShLOIRtEk+98GT18O8frF9Du7dfU1195l8NlpbP1be+XL9+6aPdaqA3frnZfs+nqJli8xC3GEc/h3vv/Q/U82ECEDty5Ei1uvps/Wr6VTj91L9+9n8zEN8Yh/hGnxHf65GXlqm0vLTN1Fd/VbJoOJiEh77FjU9xxC9lAcBySn3zyy+toC+Ib/RZKfFNXopJ9S0vnXqkjocqSTiECf2nwA+Df1qpCunOky6qq6N6XRZ8Y4YcEbcYp+s3vTF967u6ujpYarztrW+uzjv39Rv2zS/xjXGIb/QZ8b0WeWm5SstL28ylqDPtsCdA1HjufPqOwVJjmRoRnSvkiLjFONMmBRYnB9tOObnaecH5G5IcEN8Yh/hGnxHfa5GXYl6WPS9tQ1EHS+O7v3uwrpCGlqER0blCjqaN21t276s7i8+uPlcvo9/0AE2ZJimQ1PMalBy85dJLqh3nLa5fQHyjC+IbfVZafFPUwUZa1ry0DUUdLB1VR8Ohb7KZjYiiDnI0Tdy+9OLh6vq3Pniso4hyTJsU2EYnB8Q3JkF8o89KiG+hqIPNsGx5aRuKOlhKajzL8kRyijrI0bRJwTUX3Fcvb9u2rX5FGbZsOWGmpMBSycEifmmF+MYkiG/0WQnxLRR1sFmWKS9tQ1EHS20ZGhFFHeRo1qRg1m/+UDYlBc88c2iw1LjwDTvqb37nkRwQ39hMxDf6bBnjWyjqYLMtc3GnW2sCNokuyro4xxdo/dycLt66iAMAlosSyrPPPmfNiIEnfnGg/hndx/f9jJ+JRtaIb/QZ8Q2kLXNeSlFnDn78/ccHc5PTvrPsX4qwEZmr8hR3AGA5bdt2ap0chKMGvv/DH1fffODbJAfIHvGNPiO+80ReunjLmJcWe/vVJAH75rddPJhb75/+/q6j093Vtx77xmBNu49f/+n69Yv/+Nn6VbTusR88Xn3wYx+oP9MHP3btmvPp+M3r3fU2l152ybF1sXjfPtvIJ5Jz+xVyxPB9LJvU8xqmfRgn8Y1lQ3yjzzY7vqXPt1+Rl+ZtGX4pq1tr6iEF4E03fHrsFAeqAjyeRNul1puW1UjagluBL4/94Kf1q7z30r+sG42mSy8b7qfjxFLrTJ9NjdRT/NlydMWrr6o+ef7Nay7am10hBQC0U5KpZDNMOPVLPQ89/Gh1z577qgO/WnuPOpAT4ht9RnwvFnlp3pYhLy22qGO3ffWz9aRqo+jV68KAtbjROWgV4GvXDxuBaD8dz41EwiB2I9VxTJ/BlVY1unBfzauyqmlUFVTH1TH9OfWqz9cXHvqWakR7Dn5tsAYAsCxGJQePPPo9hvQja8Q3+oz4Xizy0rxtZl5afFFHgRcGn4aRxetS1MhSU1uDU9Aq4FWRbCqdTSMMG5/oGGGjaptvGkUzhetjOqeOqUaohqZ50X59oYaTakR+aBUAyP79+wdzQ6l1bbRt1+0nOW6pwuTA/DBOkoPN0yV2ie/xiO/5ScXbtDGo/TYyfvvaVojvxSAvzd9m5aXFPlNHQezAHUWNQUFn3q/tXkUFshpF05iaCqYaS6hpZJccPU5TNVXD8fHcENR44/1EVdK2iqbeG9fo/fm7bJurO5++Y81PzX1ix2dmup+RZ+ogRzyTYa0Pf/gj9etXvvIP9avddtsX6073TTd9vNq5c+dgbUPr9+699+j6C6vdu3evOYbe076p/fbu3VvvF56rrWPvfX2u3bvfv2Zdm/icfaDnNayurg6Wmuc17Lzg/Oq8c1+/7md0ie8hxdv+/U8MltIcwyHHaRjDXqc4jLc34ns6xPd0fN1VnIZ0/VWcKKYsjGPNh7HmWPc1P/5bIHpvEvFnkvD4evXnTG3bJ4uOb+nzM3XIS8lLZ/VHNx81mJ/IyovPVA///jv1/JtOeUt16vF/XM/n4lt7/rU6+PQzdSA7iMJlTQqyM1+zvXrv1e+q3xfvJ3o/ng4+fah+bY5xSb2d+HhqjDfdemN11mtV2T7u2PHUaL74X/5b9cDefz363hn1vmpgOp7e134f/9yN9bH0eVKTNMddr6meNsPd9G/09n2ih1Sp0fz0uR8N1hz9Az94SNUs/vmhpu7555cdV7+Oc/+/N9tfd2W37YFFmCZuX3n5xeqi05rk8KSTTqpe9apX1fN94cQ37uhrOZXA3n77HfU2em9lZaV65JFH6m137XpHdfrpp9f7al28r/bRubxeCYaOpW3DScfUsUTzPp7OoWUlA/E+msL9+mTLlhPqX1vRgzhfeuml6sj/+T/V0//rYPXr3/zP6uWXX6pOPhqTxx9/fL0t8T2kuFHMNXF52rpJMaP+RhwzTjbD+HVSq/jVcZtjP7FmX+J7OsT35BQjigeJY8RTuF6xpWuzY0u0ztdy/w3wMbVOtI/cfvvta449bgrbgI6lc/nz6T29avn66//m2Dn6atHxLaP61eSl5KXLZlF5aZviR+q4EungCiuF2kZSFdFxFKCuiEp8/Ljaqcah9XUjCs4Xbqdj6v2288fnDIXH6WM1NPXU8d3br5lLw2GkDnLEN70NdbZNSaU63Rq1IOrguyPudWGCq2+I9Z6+CdZ23t/fDDtJ8OiDZrlZp9dwVEKb8H3to2RE++lzaDmm97VP37/1HfdLK8T3kGJCsdIWa34vjBnHmtfp/fA4ag9hHDsem4n4nhXxPV4cL7oeO+bi9XHMeF+t13aabxPumzpWio6nc3i0j4+v/cL3PK9jhlIj5/pkEfEtJYzUIS/th0XmpW2KL+ooaMUB6WXx+6nGowBM0dA1NZIwkN1wTMf0e25I2l7CBhbvJ9pOlVLRcLf4WG3U6ETH1Ocf1dByshGNhqIOckRS0HCnuit30lUMUhGnK3XmdZ54ny4JQiiVAIS6Jh19kUoOLnzDjurz//2yep6izjDGlbymuBgZxoyT0Djh1XY+Vrxfqk1MGovE91rE92iOF702cTksLjqOwvkwtrzecauY0rLbS+r2qzD+wi8ETO+ljuE2pP3C93S8FBek+m6e8S0lFHXIS/O2GcUcK7ao4wphqrFYqvFov3jdOGFDVYAr+MNAD6uVDmoFu++BdGMU7Rve8yh+r0tjcIOc9N+wbNoazRtPvnju9ylS1EGOKOo01Ln2q5NUJ79ep2WtF7+KOvVe1nbaPtw2FK5zR95JRFvHXvxZwmTZ+6WUlvTaM88cWpMY/MuTzd89ijpNHDvOR3ES6SRXceT9FE9NfA+fHSWpWCS+54/4TlOBJBxZqfkwlmKp2FJcN/G+doSmY1O0j2PZ8ZeKa7/Xpaij47udab3WNf8e4nua+JY+F3XIS8lLZ9WtNfWMq4MOIE0OZgWg1+n9kPeblI6p4XRtwerz6NUNIPw8pnk1HH2O8LN4OfX5msbSnyeKq9F8/pc3r2k4aiyugm5UwwGQB3WgPTXLF65ZlngbU4LrdeqQm+Y9Sbhf+O2uO/rq3Gvydl4O1+k1PI5o/3gqjb7lTX3TiyYOlXgqLpQ8jpu0bRiznleCqWXFezw6Qft5OyG+54v4Hi2MPVGMqpCiSfElXtakGNM+jifFq5Y1uR34mF6OYzyk44XHnoSOK/Gx/blLQHx34/yNvDQ/y5SXFlnUcTCFgdnFtPsp4FUVVeVT1chhRfOuep2qpaIGo+18ntRQOp3bjVtSF4CQGpTOqfP4/DLpv2GzpRqNqNHoKeIbMawNQF6ajrxGJTQd+2adHgDrdc1DM5uOfbMuxZ1zcRLgSYlD2Gn3MUWdd72vRKSZms68kgOv83yTWDffJJuOGycEJWkSgtV6knNe+6f1Mxnecfnb6+XSNbEzjCkXZzyfmhxv3k+vWqfYV9FHMa11cYLstkF8zw/x3Z3jTvGiOHWsipcVi6EmvpoHeiueFYPidiAu2GibeVN7cJto/r40o3Z87r4jvrsjLyUvnYfiijoKpnDIWYoCWJODWrrs18aVSg1HU2VUQ9UcyM2wtmZqGtawshmfR+vdCDSJtveyPnNMjUqNUJ9bkz/DpP+GzaJGoynVaL76prso5gAYycUXJwDq6HvZCWVqnakz7nXqjA+TgGEC6066ttPkZb068Y0TjiYpSReRQjqGE3JNOl6cHPeNkoHf/ObXx5IBUTLw7ne9s37FUBh7ijHHqmLZcRdO4m2b+SfqWBTHq2gbx5zWa9I6TT6ntw+PbcR3O+J7dooTx6pj1BxT4TpRm5B4vdtMit5rCjLjYznmwqY+Z+pvS18R35MhLyUvnZfiijoKmiZY11cEFVyibeLtRu03jiuW4bEU0ApirfPk4I7P0QR+c79j83560vspWh9/hhy40YQNh2IOgK7ChNEdeXWwvc5JQbgu7PA3nflhIuAOfvParPcxROu1nZNSH0vrw+2kOd5w1ENXThT6qC0Z+MBf7CYZGMMx7JgLY1Drxa9xcql9vZ1iS3GpIo0KM9rWxyW+Z0N8T66Jt+E12cJ1qfdjiucwTh3Dup7rvVFFG13rxxVl9J4mt5k2cTvpE+J7OqPyS/LS5bLseWmRt18pgOJA0zoFVxOgw4AOt0vtN63UcRzc8Xv+XBJ+ttTUB2o08ZA2ijkApuGkQB1tvSph9DrzcrguLOg4Ydar1nlUgpPdUNxp9zHi7ZRUtHX+mySiPcnoOgoiF6lkQM9deP/73lMnA1u3bh2sRZsmZoaJZ1McWftT/I5BvecRZy7kmLbXOsc28T074nt6ikNRLLkQMynFkvZX7MYFw7b4FbeRcPLnaaNzpI5lbW0iZ8T37JS/xbmf1pGXLodc8tIiizpYTm2NhmfmAJiFizBdkwJ1vN3ZdyLQJAZrRx5om7CTru3iDn2TjKzv5HtdmLz6+OEx4yTA249KHHKRSgb03AUlA3ruwmmnnTZYizaOD8WD41vrFCdOYJsYHMa+3/donKaI0sSy12k5TlCJ78kQ3/MxqvAiiqE4jryumfSrWU1B3zTfFDTXjnAT7aM4HDXFdAwVfcJzSLN98/lF86n9c0R8o+9yy0v/6OajBvMTWXnxmaP/yO/U82865S3Vqcf/cT0PTEqN5s6n76h+/b+fHKxpqOGo0Zz+/54xWLM5/vmh5lf///yy4+rXce7/92b7667stj2wCNPE7Ssvv1hddFqTeJ100knVq171qno+V+qc/+3f/udqZWWl7rzHHW53+Hftekd1+umnD9ZW9bw6+ddf/zf1so6h7cLjaF77P/LII3VHXdv7GD6uttN6Tbfffsexzr3O5yQi/Ey33357/Rp+Vh2nSQQ8EqP5/+PPliMlA/o1lDgZeOcV/1918UX/qdM3u8R3E2eKK1E8VtVx9atiS6+OJy2Hcar9NK94dSz61fs6thVvp59+2pr2QXyPRnzPj4qMijfFzK5du+rYDGPc8allX8e1vQv52s/x7PhSXLs9eFn7a1+tE60fNemY4jgO24eO58+odqHXz3/+vx77zOH5crRZ8S2j+tXkpZiXZc9L2xz3ylGD+Yns/8O+6gsHbqnnX3fiudU5J5xbz6P/rnj1VYO52ajRhNVPc6NZFlff+nL9+qWPdhvYduOXm+33fIqBcNg808TtSy8erq654L56+Ywztldbtmyp53Pmb0XD5NL0njro6virk91m1DGaBFdJx/A9Hzccqh9+O5s6jug44s/iZb9a2/45UEIQJwP6RnfSZy4Q32lhnIljJRWn47TtQ3y3I77nqy0GJRWHpqJOeF0PY037hDSKTdtp0n5aHheDo87t93T+1GfX+7nG+GbGt4zqV5OXlqu0vLTNXIo6KMt1r/lQfcGclhqNxA1nWRsNRR3kiKQAyyROBkSJwKTJgBHfWCbEN/psGeJbuhZ1UJbS8tI23VpTws6TLqr/scAkXAUNG47iiIcgA0D/KBmIn7ugRIBfREEfEN/os5zim7wU0+hTXjr1SB2UZc/Br1V7D329np+mIpoa0pZLBZSROsgR3/RiM6W+2dVQfSUC83iAJvGNzUR8o8+WMb6FfjWs5Ly0DUUddDJt42lrNJJLw+GPD3I0a1KghICkoBzbtp06mJvNopMBI74xCeIbfVZCfAv9aljJeWkbijroZNLGk2o0kmMVlD8+yNGsSQHKMus3+0oGmtdhQrCIZMCIb0yC+EaflRDfQr8aVnJe2oaiDjrp2nj62Gj444McTRu3f/fXT1U/euyn9Tz6b/W55+vXWZKC+NtdJQNKBJQQLArxjS6Ib/RZafFNvxpWcl7ahqIOOhnXeNRoJDWkLfdGwx8f5Ii4xTgrKyvVvfc/UM9PkxTEyYAoEVhkMmDEN8YhvtFnxDdKVnJe2obWgZm5Cho2HDUaftEKAPpHyUDqF1He/773bEhCACwS8Y0+I77Rd6XmpRR1MDU1ms//8maKOQBQgFQyoKH6TgYW8ewFYKMQ3+gz4ht9V3peSlEHE1NjSTUaTRRzAKBfRiUD737XO0kGkDXiG31GfKPvyEsbFHUwsadeeHIw13CjoaADAP2hZKCZSAbQP8Q3+oz4RinISxsUddDJG0++eDA3pEbDrVYA0D9OBpwQKBnQEH2SAfQB8Y0+I77Rd+Sl61HUQSc7T7qo+sSOz9QNhmIOAPSTkoF4qL6TAb0COSO+0WfEN0pBXroeRR10pgakBkMxBwD6pS0Z0FB9kgHkjvhGnxHfKBF56VoUdQAAKNyRI0cGc8PnLigZYKg++oD4Rp8R3wAo6gAAUKATTzyx2nbKyYOlYTLAcxfQB8Q3+oz4BhCiqIPO9hz8Wj3t/8O+wRoAQK62bt1avePyt1dX7rqcZAC9Q3yjz4hvACGKOuhEhZy9h75eT184cEs9UdwBgLyddeb2asd555IMoJeIb/QZ8Q3AKOqgk58///hgrqGCDsUdAAAAAAA2D0UdTOx1J547mKO4AwAAAADAZqGog4nt+pOrqk+ef3P9ahR3ACA/PCsNfbayslId+NWT1W8PHhqsAfqD+EbJ6L+sRVEHU7vi1VdV173mQ8mRO2pkAIDlpes1z0pDXx0+fLj6znf/rXro4Uerbz7w7XrSOqAPiG+UjP7LehR1MBMVdFTYiYs7amQ3/ORaijsAsKR4Vhr67IUXXqhWn3t+sFTVoxnuvmdv9cij3yP5RfaIb5SM/st6FHUwF6OKOyQIALDcUiMuuXajL7Zs2TKYq6onfnGgTn4f3/czkl/0AvGNktF/aVDUwVylijskCACw3HhWGvps27ZTq7PPPufo67bBmqr6/g9/XN+yQvKL3BHfKBn9lwZFHSyEizskCACQD56Vhj5T8nvGGduPjWzQ7StOfvXAWSBnxDdKVnr/haIOFkoNjOopAOQjNeJSeFYa+kAJrxLfOPnVA2fv2XMfyS+yRnyjZCX3X4575ajB/MT0H0b/kVCWuKF09dQLT1YP//7B+jW0e/s11dVn/tVgaflcfevL9euXPtqtBnrjl5vt93yKmik2D3GLccK/4aOu66lr986TLqqv23rdDMQ3xtHPPd97/wP1fJjgxo4cOVKtrj5bv9pZZ26vrtx1ebV169bBmo1FfGMc4hsly7n/sihTtw6NsKCgg0mUXD0FgFylrt2MuERfpEY28EtC6AviGyUrqf8y9Ugd/weR8NYa9J8ahRvGLHKpnvKNAnJE3GKcrt90xb77uwfra3doo6/dxDfG6TqSIaZRDaurq4Olxtve+ubqvHNfv2EjG4hvjEN8o2Q5918WZS5FnUn+YwIxFXXufPqOwVJjmRoYf3yQI+IW40zbKbLN7BwR3xhn2qTX4uR32yknVzsvOH9Dkl/iG+MQ3yhZzv2XRaGog6WxrA2MPz7I0bRxe/1HvnHsDyXKMe3f8dSIS1n0s9Kmje9bdu+rk6FnV5+rl9FvekCsTJP0Sup5JEp+33LpJdWO8xbX7yW+0UVp8T2uXx0m+ihHbv2XRaGog6WjUTtxA9vM4g5FHeRomrg9/vR91am7PjdYg5LM+nd8oztH08T3Sy8erq5/64PHEiGUY9qk1zY6+SW+MYkS4ltG9avDvBRlya3/sigUdbCUlqmBUdRBjmYt6vCstLLob/g8/o6nrt2LKMpPm/Rec8F99fK2bdvqV5Rhy5YTZkp6LZX8LuKXhIhvTKKE+JauRR36L2XJrf+yKBR1sNRSDUw2srhDUQc5mrWow3Uds9A1e5HPSps16Z31m22UTUnvM88cGiw1LnzDjnpkwzySX+Ibm2kZ41u6FnXov2AWi+6/LEq31gRsEl2UdXGOL9C6Z1YXb13EAQDLRdfrT55/85pvTN3p5tqN3KlgcvbZ56wZEfPELw7UPxP9+L6f8TPRyBrxjZLl2n+hqDMHP/7+44O5yWnfWfYvRVjcMRIEAFhuV7z6qrpzFBbluXajL7ZtO7VOfsNRMd//4Y+rbz7wbZJfZI/4Rsly678UW9RxMaXLNMo//f1d1U03fHqwNNrHr/90PYW8v171Xnw+rdf03kv/sn7V+z5OPI37rH3At78AkJ/UiEtfu/WLJUDOdLtTeMuTHlbs5PfAr9bePg7khvhGyXLpvxRb1HExZdyk7UIu9ISTuOASrzctP/aDx6s3v+3iwZq1Pvixa+vXx37w0/pVmkLO3fV06WXD/XScWGpdTJ/RBaDc8e0vAORF1+tU50i3097wk2sp7iBrSnhTye9DDz9a3bPnPpJfZI34Rsly6L8Uf/vVbV/9bD198GMfqJf16nVhIcXiYpCLKSq8rF0/LM6I9tPxXLyRsPDj4pGOY/oM33rsG/W8ikHhvpr/4j9+tp7aCkUhnUvH1uftUgDKRaqB8e0vACyvUZ0jivLI3ajk95FHv8ctK8ga8Y2SLXP/pfiijgoiYVHk0ssuWbcuRcWf1NRWCFIhRYUYjZLxrVRxUUh0jLDY0zav/T2F69toO0l9vtyNa2AAMKku19U22neW/UsRXruNEZebb//+/YO5dl22KV2Y/JofNkvyO5lUvE0bg9pvI+O3r22F+F5e9F8Wbxn7L8X+pLmKK11GrKgIotEw5v08giamhqBiTVPkaUbWqIgTaoo/lxw9TjOaRwUdH88NSUWleD/R6B0dP0XvpYpR4WfS/KjP3wf6GbrwJ9A/seMzM/0EHT9pjhyV+JPmk3RERhXum4L58Lo8im9nTf2d8DVXfwvC87nIrnP474HXxeJ9++y7v3uwevj3Dw6WGm0/I8pPPg/t3bv3aOL4xGApbefOC6vdu3cPlhrab+/ee6ubbvr40fd3rlm3e/f7121v3uYrX/mHwZr2xNXH1fs+briujbfpk9XVZ49Oq4Olqtp2ysnVzgvOr8479/Xrfiaa+B768Ic/Ur8qTkO33fbFOk4UUxbGsebDWHOsaz8th/Frem8S8WeS8Ph69edMbdsni45v6fNPmtN/ydsk/ZdFKb6oo4AUFzu8LArYtqJOuF3Mge6iTtgAwuPpnHpPx9N6vYr3jd/38UZJNR4Vh3xef/4+FnXUoCRsVGpIKurMgqIOclRiUcfXt3Hi63rcmfJ1V9didVhC4TVW+8VFfAmvs5rXPn4/LNbrc+g9nUPH0XJIx2gr1ps+qz9/+G/KWVyYl7hzRNI75CQyTG5DSmZTSaWS5Xi9E+hQvE1c1PFyLNzPya14XVsC3fcE+JlnDlVHjhwZLKWTX+K74diOKUZS6xU3es9x7OKkj6P3JGwvWuf1qfgfJWwDEp4rLOr4c5VgUfEtfS7q0H8pp/+yKN1aU48pUDU56BScXhcHaEgFmrYp5sYgnlfDUCMIG3DTAIeNR5/J7+tVI3vUALRfaoqf4yPaXsLP0EeukIYFnd3br5m5oAMgP+pIaNI1VfTqdanrenxd9XVX1/O163lW2kZQhzzulLvDzrPS2mm0TmpKcUKsxNbzLrIo+dR6J6Ea5SPaTsmrj9nMN4myktZ4CotM3kZG7VMCFVzCogu/JJSmONGkOHLxRPOKk3i94knzjlnHUtMGhrdbhfMqRHoK+VijJp/H2tqaj61XtS9PLgL1EfE9G/ovedvM/kvxRR1VITU5aBXEXjcqyNzA4smNMKRj+vhqWDq2tw8bh+icblRuUKZjaDvvK2qQXg4bl7jBiP9d/jdpPmy8uVIx5/O/vHldMeerb7qrrooCKI+uk2GnQsX6eF2Krt+pqa0jpeuprru6nqpQr3Vxp0p0jPB62zbf/K3gWWmiDlGqc8Sz0tqp+JKaUpRkOjFVkqkRCkp2tS5MgLXs27C0rP3ipFjbtE0hLSvZ9vHibTWVQglvKvn1w2axNl4UcyriOHY0r/eH64fFSfG+LgCJ5sOCjAs0Wp/SjEBbO4Xn6MLb6zWc+o74nh79l/xtVv+l2NuvPIQsDCYFcmo5HBKm/eJ147iYov3UKN1AzZ9FmkbY3HqlxqVlNSy9ivYNn8Ujfi9V1NEx2qgQNO4isaxS9y6qmPPGky+e+/A2br9Cjrj9ql18Dfd+LrLHwuuxr7PhdVv0Xnx99vHcwdH1Nt5PdC1uu1a3XafDz6T5UZ+/D+Ihzf+x5876lduvhgnjOE6ImwS1KcZ4Pye/2ia8BUXrnQSb3/d7o25ZUbItOp+ljmk6lt5rS7T7Kr5l5V+ebPp13H6l59F4pNgT9XwYS7FUbCmum3gfHqeJ9bUjyRzLjr9UXPs9fS4dQ0Uh0bKE7+n4bmdar3XNv4f4nia+hduv6L/kaN7Pem3TrTX1jAPUDUOTg04B73V6P+T9JqVjKljDRhjyefTqBhd+HtO8Gpw+R/hZvBx/Ph1D5w0nn0vzqYa27FIjc9QwVNDZyIdRAVheTedl+A2VlzWNEn7TFE7xsGUJj+drt66p6hj5WqzOljpB6rz4GOrkhNd8LYteU1MbHdPn7TNd8zWFHSKu8w0liUo8lSgqeRw3aVvtI0osPa8EU8sq6KjgE9J+3k7C953IeqSEjhEuh+v06nnT/vFUmubhss+uSXgvfMOOwRzC2BPFqEfYKL7Ey5oUY9rH8eTRNZrcDnxML8cxHtLxwmNPQseV+Nj+3CUgvifnvgX9l/y19V8W1YcpsqijIJdJg2na/dQY3DhU/XTj0PG0zpVZNSht5/OkGoTO7aKTqFF4OcciTVepYo74uTncagXAdJ3U5GuiOipe5w5Jiq7PbVNMxzLPDztAwwK7Ok5h50Wfye/rVX8PdM3Xfqkp1SGb9m9RbnTd1zU/vr2WZ6U1lGQ6QdS8izOeT03NPruP7efCi5JfFX2UiGpdnCC7mBM+N0Tb6b3meMNjDs+x+9h8c+61t4Lp2G3JdAn8a0H+xaBzXvun1VsuvaR6x+Vvr5cx5LhTvChOHavi5bgo2MTXE3X8KZ4Vg+J2IC7YaJt5U3twm1D70efVeX3uviO+p6O/65rov+RtM/ovxRV1VIFUICpI24ogKqxoCgO7y35tXPVU42hGy1xyrMDjaqkmLesc3j4+j9ZrP0+i7b2szzyOjjnqorBsXOVMFXN4bg6AFF/D3ZlRJyJ1XY/F3zJ50vU5pmP6+Oq86NjeXtd58TU8vK67Q2M6hrbzvqJrtJfjjo+OE/+7/G/SvM+Ts1QRn2t+mhNEF19cJFECqeV4Em/bzD9RJ8TSFGCaJFTbhIUgTU2SPPwFIW8fHtuapHv8w2B1DJ9Hk47X9hygvlCy+5vf/PpYsitKdt/9rnfWrxgvLJg4Rs0xFa4TF4Hi9W4zKXqvKchM/mBjFzb1OXXuUefpE+J7Nu6r0H/J02b2X4or6ij4miLK+gqhix3aJt5u1H7jeCRNeCw3HK3zpPOnzqH1KgQNP0N60vvj6Nge5bPs2qqcdOwBpMQdHl/Tx9F+2lbX0NSk66av1+bOR3jd9vamzosmX5/dodGy+Nqt67u+0fK3Wvo84XKbZrvhvzn+9+emrTPEaMzxlDiGiawLI05wxa9xctkUUprtlISq0KMijQoz2tbH1bxew2OL1jvBtmb79C9vjeJEuI/akt0P/MVukt0WTbytLcJIuC71fkzxHMapY1jFGr03qmijgsy4ooze0+Q20yZuJ31CfM8m/vtN/yUvy9B/KfL2KwdvSOt8C5PmPYXbpfabVuo4LvzE7/lzSfjZUlMf8C0tgEmFnRRdM+PrptfFHSXvNykdUx0lHTPF52k6TcOCvoTXas2r86PPEX4WL8efT8fQecPJ59J8/PcjB6lrPs9Km0yceHqEgJa1PkyO9Z5vO3Ehx7S91rmQEyfMcVKqY0u8nZLmtuS2+aztSXTXUT65SCW7eq7I+9/3njrZ3bp162AtYopDUSxNO4JLsaT9FbtxwbAtfsVtJJz8edroHKljWVubyBnxPTv/naf/svbfl4Nl6r8UWdTBcuJbWgDT8rDgsMPRxbT7qSOj4cK69VXfXvlbKR1P6/ytkzop2s7n8RDlkM7tTpukOnZ9lLrmC9f97pwkNgWYJunVOiWyTmDjhNjvezROU0RpCkJep+U4QdXx4oS1Ofb6JNbrwuJM+FwUC+fF26eOmZtUsqvniijZ1XNFTjvttMFajDKq8CKKoTiOvK6Z9KtZzbOdTPNNQXPtCDfRPorDUVNMx1DRZ33RSNs3n180n9o/R8T3/NB/yc8y9l8o6mDTjWoYfEsLYBx9G6ROiDoTbZ0IdUw0hUN8u+zXxt9Aafhx820Tz0rrStd8TalrPiMyu2uSzyZhdPIqSlA1r+KMl7Wdlp3oer9m9MLwl6qc4GobFXh820obJ8be1nSM5rhrRwGJ1+tVXFhyMUm0f66U7DbT+mRXzxUh2e3O8ef4lDg2/L7jybEr4TrFl+PUk+JNr45N0/pRU7x9Kl61jbbVex7lo/nU/jkhvueL/gv9l3k57pWjBvMT2f+HfdUXDtxSz7/uxHOrc044t55H/13x6qsGc7NJNQpxMWdZXH3ry/Xrlz7arQZ645eb7fd8ipopNs80cXv86fuqU3d9rl6+7jUfqq/tudA3SX72mGmdOh36JsnfREm4XWq/aelc8XHUqWk6LWvPofX6XFrnb8HaTPot3DJr6wxNes2fJr5fevFwdc0F99XLZ5yxvdqyZUs93yfxKAAXVZREaopHEozSto/OoaKRklQLz9t2DieyToC97Feb5DMum1SyqyR30meKEN+NthiUVByaCjVhISiMNRc/TaPYtJ0m7aflcTE46tx+T+dPfXa9n2uMb2Z8y6h+dZiX0n+ZHP2X8ebVf1mUuRR1UJZZL5ZqFLLMDSNEUQc5Kq2og+U2784QSS+WSZzsihLdSZNdI76xTJYhvqWvRR0st2Uv5li31pTghwABk3DDCBuH4ogh9wDQP7rm86w09JWSXX7xB31FfKNkufVfph6pg7LsOfi1au+hr9fz01TAc6lypjBSBzlipA42U+qaL/O67jOSAZspNXJBt6Io0Z3HM0WIb2ymZYxvYaQONsKi+y+LQlEHnUxb1Gkr5kgu39JS1EGOZi3qqI3zrLRy5PastFmTXiW8JL3l2Lbt1MHcbBad7BrxjUmUEN/StahD/6UspT3rtQ1FHXQyaVEn94YRoqiDHM1a1EFZZv1mU9d8SRXxF3HNnzXpRVlmHbmiZLd5HSa8i0h2jfjGJEqIb+la1EFZcuu/LApFHXTStajTp2KOUdRBjqaN2+s/8o1jbR3lmKVTlLruL/qaP218/91fP1X96LHhL4mg31afe75+nSXpjUcvKNlVoquEd1GIb3RRWnyP61eHuQrKkVv/ZVEo6qCTcUWdvlQ5UyjqIEfELcaZ9rZa28zOEPGNcVZWVqp773+gnp8m6U3diqJEd5HJrhHfGIf4Rsly7r8sCq0DM3PDCBuHGga/aAUA/aNrfuoXIfpQxAeU7KZ+8ef973vPhiS8wCIR3yhZn/svFHUwtbaGQTEHAPondc0Xd4a47iNnqWRXt6I42V3Es0WAjUJ8o2Ql9F8o6mBiahB8SwsAZRjVGaKIj9yNSnbf/a53kuwia8Q3SlZS/4WiDib21AtPDuYafapyAgAa6gxpopiDPlKy20wku+gf4hslK7H/QlEHnbzx5IsHc0N07AGgn9wZCjtEXPPRF052nfAq2dUtKCS76APiGyUrtf9CUQed7DzpouoTOz5TNwo69gDQT+oMpW6v5ZqPPlCym3pIrJJdvQI5I75RstL7LxR10JkKO2oUdOwBoF/UCeJZaeirtmTXD4kFckZ8o2T0XxrHvXLUYB5AwtW3vly/vu/Pjqtfx7n/35smtedT1EyxeYhbjLPn4NeqvYe+Plhaa9k7Q8Q3xllZWanuvf+BwdKQb0VZ5ttQiG+M04f4/tJHu8XrjV9utie+YTn3XxaFog4whv/4TIo/PthMxC3G2f+HfdUXDtwyWGrk0hkivjHO4cOHq28+8O1q9bnn6+Uckl0jvjFOH+Kbog6mlXP/ZVEo6gBj3PnQdE3kuiu7fcMGLAJxiy7UMfr584/X8zl1hohvdPHbg4fq5PfUbadk9YBY4htd5BrfFHUwD7n2XxaFog4AAAAAYOEo6gDzR+sAAAAAAADIEEUdAAAAAACADFHUAQAAAAAAyE5V/V+Nck78MpNIfgAAAABJRU5ErkJggg==;" vertex="1" parent="1">
          <mxGeometry x="540" y="591.65" width="600" height="126.2" as="geometry" />
        </mxCell>
        <mxCell id="Upq6xmgnHAcSHIq_n58L-16" value="" style="group" vertex="1" connectable="0" parent="1">
          <mxGeometry x="100" y="320" width="140" height="90" as="geometry" />
        </mxCell>
        <mxCell id="Upq6xmgnHAcSHIq_n58L-17" value="Serial Old" style="rounded=1;whiteSpace=wrap;html=1;verticalAlign=top;fontSize=16;fillColor=#ffcd28;strokeColor=#d79b00;gradientColor=#ffa500;" vertex="1" parent="Upq6xmgnHAcSHIq_n58L-16">
          <mxGeometry width="140" height="90" as="geometry" />
        </mxCell>
        <mxCell id="Upq6xmgnHAcSHIq_n58L-18" value="串行&lt;br style=&quot;border-color: var(--border-color);&quot;&gt;客户端模式默认" style="rounded=0;whiteSpace=wrap;html=1;glass=1;fillColor=#ffcd28;strokeColor=#d79b00;gradientColor=#ffa500;" vertex="1" parent="Upq6xmgnHAcSHIq_n58L-16">
          <mxGeometry x="15" y="40" width="110" height="40" as="geometry" />
        </mxCell>
        <mxCell id="Upq6xmgnHAcSHIq_n58L-32" value="" style="group" vertex="1" connectable="0" parent="1">
          <mxGeometry x="470" y="320" width="140" height="90" as="geometry" />
        </mxCell>
        <mxCell id="Upq6xmgnHAcSHIq_n58L-20" value="Parallel Old" style="rounded=1;whiteSpace=wrap;html=1;verticalAlign=top;fontSize=16;fillColor=#ffcd28;strokeColor=#d79b00;gradientColor=#ffa500;" vertex="1" parent="Upq6xmgnHAcSHIq_n58L-32">
          <mxGeometry width="140" height="90" as="geometry" />
        </mxCell>
        <mxCell id="Upq6xmgnHAcSHIq_n58L-21" value="并行&lt;br style=&quot;border-color: var(--border-color);&quot;&gt;吞吐量优先" style="rounded=0;whiteSpace=wrap;html=1;glass=1;fillColor=#ffcd28;strokeColor=#d79b00;gradientColor=#ffa500;" vertex="1" parent="Upq6xmgnHAcSHIq_n58L-32">
          <mxGeometry x="15" y="40" width="110" height="40" as="geometry" />
        </mxCell>
        <mxCell id="Upq6xmgnHAcSHIq_n58L-33" value="" style="endArrow=none;html=1;rounded=0;exitX=0.5;exitY=0;exitDx=0;exitDy=0;entryX=0.5;entryY=1;entryDx=0;entryDy=0;" edge="1" parent="1" source="Upq6xmgnHAcSHIq_n58L-17" target="Upq6xmgnHAcSHIq_n58L-2">
          <mxGeometry width="50" height="50" relative="1" as="geometry">
            <mxPoint x="560" y="260" as="sourcePoint" />
            <mxPoint x="610" y="210" as="targetPoint" />
          </mxGeometry>
        </mxCell>
        <mxCell id="Upq6xmgnHAcSHIq_n58L-34" value="" style="endArrow=none;html=1;rounded=0;exitX=0.5;exitY=0;exitDx=0;exitDy=0;entryX=0.5;entryY=1;entryDx=0;entryDy=0;" edge="1" parent="1" source="Upq6xmgnHAcSHIq_n58L-17" target="Upq6xmgnHAcSHIq_n58L-14">
          <mxGeometry width="50" height="50" relative="1" as="geometry">
            <mxPoint x="180" y="330" as="sourcePoint" />
            <mxPoint x="180" y="180" as="targetPoint" />
          </mxGeometry>
        </mxCell>
        <mxCell id="Upq6xmgnHAcSHIq_n58L-35" value="" style="endArrow=none;html=1;rounded=0;exitX=0.5;exitY=0;exitDx=0;exitDy=0;entryX=0.5;entryY=1;entryDx=0;entryDy=0;" edge="1" parent="1" source="Upq6xmgnHAcSHIq_n58L-17" target="Upq6xmgnHAcSHIq_n58L-10">
          <mxGeometry width="50" height="50" relative="1" as="geometry">
            <mxPoint x="180" y="330" as="sourcePoint" />
            <mxPoint x="180" y="180" as="targetPoint" />
          </mxGeometry>
        </mxCell>
        <mxCell id="Upq6xmgnHAcSHIq_n58L-36" value="" style="endArrow=none;html=1;rounded=0;exitX=0.5;exitY=0;exitDx=0;exitDy=0;entryX=0.5;entryY=1;entryDx=0;entryDy=0;" edge="1" parent="1" source="Upq6xmgnHAcSHIq_n58L-20" target="Upq6xmgnHAcSHIq_n58L-14">
          <mxGeometry width="50" height="50" relative="1" as="geometry">
            <mxPoint x="180" y="330" as="sourcePoint" />
            <mxPoint x="180" y="180" as="targetPoint" />
          </mxGeometry>
        </mxCell>
        <mxCell id="Upq6xmgnHAcSHIq_n58L-37" value="" style="endArrow=none;html=1;rounded=0;exitX=0.5;exitY=0;exitDx=0;exitDy=0;entryX=0.5;entryY=1;entryDx=0;entryDy=0;" edge="1" parent="1" source="Upq6xmgnHAcSHIq_n58L-23" target="Upq6xmgnHAcSHIq_n58L-2">
          <mxGeometry width="50" height="50" relative="1" as="geometry">
            <mxPoint x="369.5" y="430" as="sourcePoint" />
            <mxPoint x="369.5" y="280" as="targetPoint" />
          </mxGeometry>
        </mxCell>
        <mxCell id="Upq6xmgnHAcSHIq_n58L-38" value="" style="endArrow=none;html=1;rounded=0;exitX=0.5;exitY=0;exitDx=0;exitDy=0;entryX=0.5;entryY=1;entryDx=0;entryDy=0;" edge="1" parent="1" source="Upq6xmgnHAcSHIq_n58L-23" target="Upq6xmgnHAcSHIq_n58L-10">
          <mxGeometry width="50" height="50" relative="1" as="geometry">
            <mxPoint x="359" y="441" as="sourcePoint" />
            <mxPoint x="180" y="180" as="targetPoint" />
          </mxGeometry>
        </mxCell>
        <mxCell id="Upq6xmgnHAcSHIq_n58L-39" value="" style="endArrow=none;html=1;rounded=0;exitX=0.5;exitY=0;exitDx=0;exitDy=0;entryX=1;entryY=0.5;entryDx=0;entryDy=0;" edge="1" parent="1" source="Upq6xmgnHAcSHIq_n58L-23" target="Upq6xmgnHAcSHIq_n58L-17">
          <mxGeometry width="50" height="50" relative="1" as="geometry">
            <mxPoint x="365" y="440" as="sourcePoint" />
            <mxPoint x="180" y="180" as="targetPoint" />
          </mxGeometry>
        </mxCell>
        <mxCell id="Upq6xmgnHAcSHIq_n58L-40" value="" style="shape=flexArrow;endArrow=classic;html=1;rounded=0;exitX=0.283;exitY=1.022;exitDx=0;exitDy=0;exitPerimeter=0;entryX=0.643;entryY=-0.016;entryDx=0;entryDy=0;entryPerimeter=0;fillColor=#f5f5f5;gradientColor=#b3b3b3;strokeColor=none;" edge="1" parent="1">
          <mxGeometry width="50" height="50" relative="1" as="geometry">
            <mxPoint x="340.0000000000001" y="524.03" as="sourcePoint" />
            <mxPoint x="340.0000000000001" y="590.0044" as="targetPoint" />
          </mxGeometry>
        </mxCell>
        <mxCell id="Upq6xmgnHAcSHIq_n58L-41" value="" style="shape=flexArrow;endArrow=classic;html=1;rounded=0;exitX=0.283;exitY=1.022;exitDx=0;exitDy=0;exitPerimeter=0;entryX=0.328;entryY=-0.021;entryDx=0;entryDy=0;entryPerimeter=0;fillColor=#f5f5f5;gradientColor=#b3b3b3;strokeColor=none;" edge="1" parent="1" target="Upq6xmgnHAcSHIq_n58L-29">
          <mxGeometry width="50" height="50" relative="1" as="geometry">
            <mxPoint x="736.8000000000002" y="300" as="sourcePoint" />
            <mxPoint x="737.8000000000002" y="366" as="targetPoint" />
          </mxGeometry>
        </mxCell>
      </root>
    </mxGraphModel>
  </diagram>
</mxfile>
